<svg width="931" height="1161" viewBox="0 0 931 1161" fill="none" xmlns="http://www.w3.org/2000/svg">
<path opacity="0.24" fill-rule="evenodd" clip-rule="evenodd" d="M350.5 803.419C473.615 803.419 573.419 703.615 573.419 580.5C573.419 457.385 473.615 357.581 350.5 357.581C227.385 357.581 127.581 457.385 127.581 580.5C127.581 703.615 227.385 803.419 350.5 803.419ZM350.5 857C503.207 857 627 733.207 627 580.5C627 427.793 503.207 304 350.5 304C197.793 304 74 427.793 74 580.5C74 733.207 197.793 857 350.5 857Z" fill="#E7E7E7"/>
<path opacity="0.4" d="M350.5 1049.01C609.25 1049.01 819.008 839.25 819.008 580.5C819.008 321.75 609.25 111.992 350.5 111.992C91.75 111.992 -118.008 321.75 -118.008 580.5C-118.008 839.25 91.75 1049.01 350.5 1049.01ZM930.5 580.5C930.5 900.825 670.825 1160.5 350.5 1160.5C30.1748 1160.5 -229.5 900.825 -229.5 580.5C-229.5 260.175 30.1748 0.5 350.5 0.5C670.825 0.5 930.5 260.175 930.5 580.5Z" stroke="#AAAAAA"/>
</svg>
