<svg width="1058" height="457" viewBox="0 0 1058 457" fill="none" xmlns="http://www.w3.org/2000/svg">
<g opacity="0.46">
<path opacity="0.1" fill-rule="evenodd" clip-rule="evenodd" d="M580.5 803.419C703.615 803.419 803.419 703.615 803.419 580.5C803.419 457.385 703.615 357.581 580.5 357.581C457.385 357.581 357.581 457.385 357.581 580.5C357.581 703.615 457.385 803.419 580.5 803.419ZM580.5 857C733.207 857 857 733.207 857 580.5C857 427.793 733.207 304 580.5 304C427.793 304 304 427.793 304 580.5C304 733.207 427.793 857 580.5 857Z" fill="white"/>
<path opacity="0.4" d="M580.5 1049.01C839.25 1049.01 1049.01 839.25 1049.01 580.5C1049.01 321.75 839.25 111.992 580.5 111.992C321.75 111.992 111.992 321.75 111.992 580.5C111.992 839.25 321.75 1049.01 580.5 1049.01ZM1160.5 580.5C1160.5 900.825 900.825 1160.5 580.5 1160.5C260.175 1160.5 0.5 900.825 0.5 580.5C0.5 260.175 260.175 0.5 580.5 0.5C900.825 0.5 1160.5 260.175 1160.5 580.5Z" stroke="white"/>
</g>
</svg>
