<svg width="151" height="53" viewBox="0 0 151 53" fill="none" xmlns="http://www.w3.org/2000/svg">
<rect width="151" height="52.0191" rx="16" fill="#131D35"/>
<path d="M27.5044 26.0116L17.5183 35.7488C17.0506 35.4252 16.773 34.8869 16.7779 34.3134V17.7098C16.773 17.1363 17.0506 16.598 17.5183 16.2744L27.5044 26.0116Z" fill="#2196F3"/>
<path d="M30.9984 22.6102L27.5042 26.0114L17.5181 16.2742C17.5557 16.2447 17.5949 16.2172 17.6354 16.1919C18.1632 15.868 18.8224 15.8575 19.36 16.1645L30.9984 22.6102Z" fill="#4CAF50"/>
<path d="M35.2333 26.0115C35.2398 26.659 34.8923 27.257 34.3304 27.5658L30.9986 29.4127L27.5044 26.0115L30.9986 22.6104L34.3304 24.4572C34.8923 24.766 35.2398 25.3641 35.2333 26.0115Z" fill="#FFC107"/>
<path d="M30.9987 29.4129L19.3602 35.8586C18.8215 36.1608 18.1648 36.1504 17.6357 35.8312C17.5951 35.8059 17.5559 35.7785 17.5183 35.7489L27.5045 26.0117L30.9987 29.4129Z" fill="#F44336"/>
<path d="M49.9374 12.2796C50.7025 12.2796 51.3635 12.4239 51.9205 12.7125C52.4843 12.9945 52.9138 13.4005 53.2091 13.9308C53.5111 14.4611 53.6621 15.0853 53.6621 15.8035C53.6621 16.5217 53.5111 17.1459 53.2091 17.6762C52.9138 18.1997 52.4843 18.6025 51.9205 18.8844C51.3635 19.1596 50.7025 19.2972 49.9374 19.2972H47.7529V12.2796H49.9374ZM49.9374 18.542C50.8434 18.542 51.5346 18.3038 52.0111 17.8272C52.4876 17.3439 52.7259 16.6694 52.7259 15.8035C52.7259 14.9309 52.4843 14.2496 52.0011 13.7596C51.5246 13.2697 50.8367 13.0247 49.9374 13.0247H48.669V18.542H49.9374Z" fill="white"/>
<path d="M57.2763 19.3878C56.7596 19.3878 56.2898 19.2703 55.867 19.0354C55.4509 18.8005 55.122 18.4682 54.8804 18.0386C54.6456 17.6023 54.5281 17.0989 54.5281 16.5284C54.5281 15.9646 54.6489 15.4679 54.8905 15.0383C55.1388 14.602 55.4744 14.2698 55.8972 14.0416C56.32 13.8066 56.7931 13.6892 57.3166 13.6892C57.84 13.6892 58.3132 13.8066 58.736 14.0416C59.1588 14.2698 59.491 14.5987 59.7326 15.0282C59.9809 15.4578 60.105 15.9579 60.105 16.5284C60.105 17.0989 59.9775 17.6023 59.7225 18.0386C59.4742 18.4682 59.1353 18.8005 58.7058 19.0354C58.2763 19.2703 57.7998 19.3878 57.2763 19.3878ZM57.2763 18.5823C57.6052 18.5823 57.9139 18.5051 58.2024 18.3508C58.491 18.1964 58.7226 17.9648 58.897 17.656C59.0782 17.3473 59.1688 16.9714 59.1688 16.5284C59.1688 16.0854 59.0816 15.7095 58.9071 15.4008C58.7326 15.092 58.5044 14.8638 58.2226 14.7161C57.9407 14.5617 57.6354 14.4846 57.3065 14.4846C56.971 14.4846 56.6622 14.5617 56.3804 14.7161C56.1052 14.8638 55.8838 15.092 55.716 15.4008C55.5482 15.7095 55.4643 16.0854 55.4643 16.5284C55.4643 16.9781 55.5448 17.3574 55.7059 17.6661C55.8737 17.9749 56.0952 18.2064 56.3703 18.3608C56.6455 18.5085 56.9475 18.5823 57.2763 18.5823Z" fill="white"/>
<path d="M68.6582 13.7798L66.9368 19.2972H65.9905L64.6617 14.9175L63.3329 19.2972H62.3866L60.6552 13.7798H61.5914L62.8598 18.4112L64.2288 13.7798H65.165L66.5039 18.4212L67.7522 13.7798H68.6582Z" fill="white"/>
<path d="M72.2551 13.6791C72.9262 13.6791 73.4698 13.8838 73.8859 14.2933C74.302 14.696 74.5101 15.2799 74.5101 16.0451V19.2972H73.6041V16.176C73.6041 15.6256 73.4665 15.2061 73.1913 14.9175C72.9162 14.6222 72.5403 14.4745 72.0639 14.4745C71.5807 14.4745 71.1948 14.6255 70.9062 14.9276C70.6243 15.2296 70.4834 15.6692 70.4834 16.2465V19.2972H69.5673V13.7798H70.4834V14.5651C70.6646 14.2832 70.9095 14.065 71.2183 13.9107C71.5337 13.7563 71.8793 13.6791 72.2551 13.6791Z" fill="white"/>
<path d="M76.9225 11.8467V19.2972H76.0064V11.8467H76.9225Z" fill="white"/>
<path d="M80.8897 19.3878C80.373 19.3878 79.9032 19.2703 79.4804 19.0354C79.0643 18.8005 78.7355 18.4682 78.4939 18.0386C78.259 17.6023 78.1415 17.0989 78.1415 16.5284C78.1415 15.9646 78.2623 15.4679 78.5039 15.0383C78.7522 14.602 79.0878 14.2698 79.5106 14.0416C79.9334 13.8066 80.4065 13.6892 80.93 13.6892C81.4535 13.6892 81.9266 13.8066 82.3494 14.0416C82.7722 14.2698 83.1044 14.5987 83.346 15.0282C83.5943 15.4578 83.7185 15.9579 83.7185 16.5284C83.7185 17.0989 83.5909 17.6023 83.3359 18.0386C83.0876 18.4682 82.7487 18.8005 82.3192 19.0354C81.8897 19.2703 81.4132 19.3878 80.8897 19.3878ZM80.8897 18.5823C81.2186 18.5823 81.5273 18.5051 81.8159 18.3508C82.1044 18.1964 82.336 17.9648 82.5105 17.656C82.6917 17.3473 82.7823 16.9714 82.7823 16.5284C82.7823 16.0854 82.695 15.7095 82.5205 15.4008C82.346 15.092 82.1179 14.8638 81.836 14.7161C81.5541 14.5617 81.2488 14.4846 80.9199 14.4846C80.5844 14.4846 80.2757 14.5617 79.9938 14.7161C79.7186 14.8638 79.4972 15.092 79.3294 15.4008C79.1616 15.7095 79.0777 16.0854 79.0777 16.5284C79.0777 16.9781 79.1583 17.3574 79.3193 17.6661C79.4871 17.9749 79.7086 18.2064 79.9837 18.3608C80.2589 18.5085 80.5609 18.5823 80.8897 18.5823Z" fill="white"/>
<path d="M84.5807 16.5183C84.5807 15.9545 84.6947 15.4612 84.9229 15.0383C85.1511 14.6087 85.4632 14.2765 85.8591 14.0416C86.2618 13.8066 86.7081 13.6892 87.198 13.6892C87.6812 13.6892 88.1006 13.7932 88.4563 14.0013C88.812 14.2094 89.0771 14.4711 89.2516 14.7866V13.7798H90.1777V19.2972H89.2516V18.2702C89.0704 18.5924 88.7986 18.8609 88.4362 19.0757C88.0805 19.2837 87.6644 19.3878 87.1879 19.3878C86.698 19.3878 86.2551 19.267 85.8591 19.0253C85.4632 18.7837 85.1511 18.4447 84.9229 18.0084C84.6947 17.5721 84.5807 17.0754 84.5807 16.5183ZM89.2516 16.5284C89.2516 16.1122 89.1677 15.7498 88.9999 15.441C88.8321 15.1323 88.604 14.8974 88.3154 14.7363C88.0335 14.5685 87.7215 14.4846 87.3792 14.4846C87.0369 14.4846 86.7248 14.5651 86.443 14.7262C86.1611 14.8873 85.9363 15.1222 85.7685 15.431C85.6007 15.7397 85.5168 16.1022 85.5168 16.5183C85.5168 16.9412 85.6007 17.3104 85.7685 17.6258C85.9363 17.9346 86.1611 18.1729 86.443 18.3407C86.7248 18.5018 87.0369 18.5823 87.3792 18.5823C87.7215 18.5823 88.0335 18.5018 88.3154 18.3407C88.604 18.1729 88.8321 17.9346 88.9999 17.6258C89.1677 17.3104 89.2516 16.9446 89.2516 16.5284Z" fill="white"/>
<path d="M91.3835 16.5183C91.3835 15.9545 91.4976 15.4612 91.7258 15.0383C91.954 14.6087 92.266 14.2765 92.662 14.0416C93.0646 13.8066 93.5143 13.6892 94.0109 13.6892C94.4404 13.6892 94.8397 13.7898 95.2088 13.9912C95.578 14.1859 95.8598 14.4443 96.0544 14.7665V11.8467H96.9806V19.2972H96.0544V18.2601C95.8732 18.589 95.6048 18.8609 95.2491 19.0757C94.8934 19.2837 94.4773 19.3878 94.0009 19.3878C93.5109 19.3878 93.0646 19.267 92.662 19.0253C92.266 18.7837 91.954 18.4447 91.7258 18.0084C91.4976 17.5721 91.3835 17.0754 91.3835 16.5183ZM96.0544 16.5284C96.0544 16.1122 95.9706 15.7498 95.8028 15.441C95.635 15.1323 95.4068 14.8974 95.1182 14.7363C94.8364 14.5685 94.5243 14.4846 94.182 14.4846C93.8398 14.4846 93.5277 14.5651 93.2458 14.7262C92.964 14.8873 92.7392 15.1222 92.5714 15.431C92.4036 15.7397 92.3197 16.1022 92.3197 16.5183C92.3197 16.9412 92.4036 17.3104 92.5714 17.6258C92.7392 17.9346 92.964 18.1729 93.2458 18.3407C93.5277 18.5018 93.8398 18.5823 94.182 18.5823C94.5243 18.5823 94.8364 18.5018 95.1182 18.3407C95.4068 18.1729 95.635 17.9346 95.8028 17.6258C95.9706 17.3104 96.0544 16.9446 96.0544 16.5284Z" fill="white"/>
<path d="M103.618 19.3878C103.102 19.3878 102.632 19.2703 102.209 19.0354C101.793 18.8005 101.464 18.4682 101.222 18.0386C100.988 17.6023 100.87 17.0989 100.87 16.5284C100.87 15.9646 100.991 15.4679 101.233 15.0383C101.481 14.602 101.816 14.2698 102.239 14.0416C102.662 13.8066 103.135 13.6892 103.659 13.6892C104.182 13.6892 104.655 13.8066 105.078 14.0416C105.501 14.2698 105.833 14.5987 106.075 15.0282C106.323 15.4578 106.447 15.9579 106.447 16.5284C106.447 17.0989 106.32 17.6023 106.065 18.0386C105.816 18.4682 105.477 18.8005 105.048 19.0354C104.618 19.2703 104.142 19.3878 103.618 19.3878ZM103.618 18.5823C103.947 18.5823 104.256 18.5051 104.545 18.3508C104.833 18.1964 105.065 17.9648 105.239 17.656C105.42 17.3473 105.511 16.9714 105.511 16.5284C105.511 16.0854 105.424 15.7095 105.249 15.4008C105.075 15.092 104.846 14.8638 104.565 14.7161C104.283 14.5617 103.977 14.4846 103.649 14.4846C103.313 14.4846 103.004 14.5617 102.722 14.7161C102.447 14.8638 102.226 15.092 102.058 15.4008C101.89 15.7095 101.806 16.0854 101.806 16.5284C101.806 16.9781 101.887 17.3574 102.048 17.6661C102.216 17.9749 102.437 18.2064 102.712 18.3608C102.988 18.5085 103.29 18.5823 103.618 18.5823Z" fill="white"/>
<path d="M110.339 13.6791C111.01 13.6791 111.554 13.8838 111.97 14.2933C112.386 14.696 112.594 15.2799 112.594 16.0451V19.2972H111.688V16.176C111.688 15.6256 111.551 15.2061 111.276 14.9175C111 14.6222 110.625 14.4745 110.148 14.4745C109.665 14.4745 109.279 14.6255 108.99 14.9276C108.709 15.2296 108.568 15.6692 108.568 16.2465V19.2972H107.652V13.7798H108.568V14.5651C108.749 14.2832 108.994 14.065 109.302 13.9107C109.618 13.7563 109.964 13.6791 110.339 13.6791Z" fill="white"/>
<path d="M117.892 14.5349V17.7869C117.892 18.0554 117.949 18.2467 118.063 18.3608C118.177 18.4682 118.375 18.5219 118.657 18.5219H119.331V19.2972H118.506C117.996 19.2972 117.613 19.1797 117.358 18.9448C117.103 18.7099 116.976 18.3239 116.976 17.7869V14.5349H116.261V13.7798H116.976V12.3904H117.892V13.7798H119.331V14.5349H117.892Z" fill="white"/>
<path d="M123.179 13.6791C123.596 13.6791 123.971 13.7697 124.307 13.9509C124.642 14.1255 124.904 14.3906 125.092 14.7463C125.287 15.1021 125.384 15.535 125.384 16.0451V19.2972H124.478V16.176C124.478 15.6256 124.34 15.2061 124.065 14.9175C123.79 14.6222 123.414 14.4745 122.938 14.4745C122.455 14.4745 122.069 14.6255 121.78 14.9276C121.498 15.2296 121.357 15.6692 121.357 16.2465V19.2972H120.441V11.8467H121.357V14.5651C121.539 14.2832 121.787 14.065 122.102 13.9107C122.424 13.7563 122.784 13.6791 123.179 13.6791Z" fill="white"/>
<path d="M131.914 16.327C131.914 16.5016 131.904 16.6861 131.884 16.8808H127.474C127.508 17.4245 127.693 17.8507 128.028 18.1595C128.37 18.4615 128.783 18.6125 129.266 18.6125C129.662 18.6125 129.991 18.5219 130.253 18.3407C130.521 18.1527 130.709 17.9044 130.817 17.5956H131.803C131.655 18.1259 131.36 18.5588 130.917 18.8944C130.474 19.2233 129.924 19.3878 129.266 19.3878C128.743 19.3878 128.273 19.2703 127.857 19.0354C127.448 18.8005 127.125 18.4682 126.891 18.0386C126.656 17.6023 126.538 17.0989 126.538 16.5284C126.538 15.9579 126.652 15.4578 126.88 15.0282C127.109 14.5987 127.427 14.2698 127.837 14.0416C128.253 13.8066 128.729 13.6892 129.266 13.6892C129.79 13.6892 130.253 13.8033 130.655 14.0315C131.058 14.2597 131.367 14.5752 131.582 14.9779C131.803 15.3739 131.914 15.8236 131.914 16.327ZM130.968 16.1357C130.968 15.7867 130.89 15.488 130.736 15.2397C130.582 14.9846 130.37 14.7933 130.102 14.6658C129.84 14.5315 129.548 14.4644 129.226 14.4644C128.763 14.4644 128.367 14.6121 128.038 14.9074C127.716 15.2028 127.531 15.6122 127.484 16.1357H130.968Z" fill="white"/>
<path d="M54.9506 30.5067C54.7593 30.1543 54.4825 29.8875 54.1201 29.7063C53.7677 29.515 53.35 29.4193 52.8668 29.4193C52.0312 29.4193 51.3618 29.6962 50.8585 30.2499C50.3551 30.7936 50.1035 31.5236 50.1035 32.4398C50.1035 33.4164 50.3652 34.1816 50.8887 34.7353C51.4222 35.279 52.152 35.5509 53.0782 35.5509C53.7124 35.5509 54.2459 35.3898 54.6788 35.0676C55.1217 34.7454 55.4438 34.2823 55.6452 33.6782H52.3685V31.7753H57.9857V34.1765C57.7944 34.8209 57.4672 35.42 57.0042 35.9737C56.5512 36.5275 55.9723 36.9755 55.2677 37.3178C54.563 37.6602 53.7677 37.8313 52.8819 37.8313C51.8349 37.8313 50.8987 37.6048 50.0733 37.1517C49.2579 36.6886 48.6186 36.0492 48.1556 35.2337C47.7026 34.4182 47.4761 33.4869 47.4761 32.4398C47.4761 31.3927 47.7026 30.4614 48.1556 29.6459C48.6186 28.8203 49.2579 28.1809 50.0733 27.7279C50.8887 27.2647 51.8198 27.0331 52.8668 27.0331C54.1352 27.0331 55.2022 27.3402 56.068 27.9544C56.9438 28.5686 57.5226 29.4193 57.8045 30.5067H54.9506Z" fill="white"/>
<path d="M63.2513 37.8766C62.4259 37.8766 61.6809 37.7004 61.0165 37.348C60.3622 36.9957 59.8438 36.4922 59.4612 35.8378C59.0888 35.1834 58.9025 34.4182 58.9025 33.5423C58.9025 32.6764 59.0938 31.9162 59.4763 31.2618C59.8589 30.5973 60.3823 30.0889 61.0467 29.7365C61.7111 29.3841 62.4561 29.2079 63.2815 29.2079C64.107 29.2079 64.8519 29.3841 65.5163 29.7365C66.1807 30.0889 66.7042 30.5973 67.0867 31.2618C67.4693 31.9162 67.6605 32.6764 67.6605 33.5423C67.6605 34.4081 67.4642 35.1733 67.0716 35.8378C66.6891 36.4922 66.1606 36.9957 65.4861 37.348C64.8217 37.7004 64.0768 37.8766 63.2513 37.8766ZM63.2513 35.6415C63.7446 35.6415 64.1624 35.4602 64.5046 35.0978C64.857 34.7353 65.0331 34.2168 65.0331 33.5423C65.0331 32.8677 64.862 32.3492 64.5197 31.9867C64.1875 31.6243 63.7748 31.443 63.2815 31.443C62.7782 31.443 62.3604 31.6243 62.0282 31.9867C61.696 32.3391 61.5299 32.8576 61.5299 33.5423C61.5299 34.2168 61.691 34.7353 62.0131 35.0978C62.3453 35.4602 62.7581 35.6415 63.2513 35.6415Z" fill="white"/>
<path d="M72.8658 37.8766C72.0403 37.8766 71.2954 37.7004 70.631 37.348C69.9766 36.9957 69.4582 36.4922 69.0757 35.8378C68.7032 35.1834 68.517 34.4182 68.517 33.5423C68.517 32.6764 68.7082 31.9162 69.0908 31.2618C69.4733 30.5973 69.9968 30.0889 70.6612 29.7365C71.3256 29.3841 72.0705 29.2079 72.896 29.2079C73.7214 29.2079 74.4664 29.3841 75.1308 29.7365C75.7952 30.0889 76.3186 30.5973 76.7012 31.2618C77.0837 31.9162 77.275 32.6764 77.275 33.5423C77.275 34.4081 77.0787 35.1733 76.6861 35.8378C76.3035 36.4922 75.775 36.9957 75.1006 37.348C74.4362 37.7004 73.6912 37.8766 72.8658 37.8766ZM72.8658 35.6415C73.359 35.6415 73.7768 35.4602 74.1191 35.0978C74.4714 34.7353 74.6476 34.2168 74.6476 33.5423C74.6476 32.8677 74.4764 32.3492 74.1342 31.9867C73.802 31.6243 73.3892 31.443 72.896 31.443C72.3926 31.443 71.9749 31.6243 71.6427 31.9867C71.3105 32.3391 71.1444 32.8576 71.1444 33.5423C71.1444 34.2168 71.3054 34.7353 71.6276 35.0978C71.9598 35.4602 72.3725 35.6415 72.8658 35.6415Z" fill="white"/>
<path d="M81.846 29.2079C82.44 29.2079 82.9584 29.3287 83.4013 29.5703C83.8543 29.812 84.2016 30.1291 84.4432 30.5218V29.3287H87.0253V37.7407C87.0253 38.516 86.8693 39.2157 86.5572 39.8399C86.2552 40.4742 85.7871 40.9776 85.1529 41.3502C84.5288 41.7227 83.7486 41.9089 82.8124 41.9089C81.5642 41.9089 80.5525 41.6119 79.7773 41.0179C79.0022 40.4339 78.5593 39.6386 78.4485 38.6317H81.0004C81.081 38.9539 81.2722 39.2056 81.5742 39.3869C81.8762 39.5782 82.2487 39.6738 82.6916 39.6738C83.2252 39.6738 83.648 39.5177 83.96 39.2056C84.2822 38.9036 84.4432 38.4153 84.4432 37.7407V36.5476C84.1916 36.9403 83.8443 37.2625 83.4013 37.5142C82.9584 37.7558 82.44 37.8766 81.846 37.8766C81.1514 37.8766 80.5223 37.7004 79.9585 37.348C79.3948 36.9856 78.9468 36.4771 78.6146 35.8227C78.2925 35.1582 78.1314 34.393 78.1314 33.5272C78.1314 32.6613 78.2925 31.9011 78.6146 31.2467C78.9468 30.5923 79.3948 30.0889 79.9585 29.7365C80.5223 29.3841 81.1514 29.2079 81.846 29.2079ZM84.4432 33.5423C84.4432 32.8979 84.262 32.3894 83.8996 32.0169C83.5473 31.6444 83.1144 31.4581 82.601 31.4581C82.0876 31.4581 81.6497 31.6444 81.2873 32.0169C80.935 32.3794 80.7588 32.8828 80.7588 33.5272C80.7588 34.1715 80.935 34.685 81.2873 35.0676C81.6497 35.4401 82.0876 35.6264 82.601 35.6264C83.1144 35.6264 83.5473 35.4401 83.8996 35.0676C84.262 34.6951 84.4432 34.1866 84.4432 33.5423Z" fill="white"/>
<path d="M91.4755 26.5801V37.7558H88.8934V26.5801H91.4755Z" fill="white"/>
<path d="M101.289 33.4063C101.289 33.648 101.274 33.8997 101.244 34.1614H95.4003C95.4406 34.685 95.6067 35.0877 95.8986 35.3696C96.2006 35.6415 96.568 35.7774 97.0009 35.7774C97.6452 35.7774 98.0931 35.5056 98.3448 34.9619H101.093C100.952 35.5156 100.695 36.014 100.323 36.457C99.9605 36.9 99.5025 37.2474 98.9488 37.4991C98.3951 37.7508 97.776 37.8766 97.0915 37.8766C96.266 37.8766 95.5312 37.7004 94.8869 37.348C94.2426 36.9957 93.7393 36.4922 93.3769 35.8378C93.0145 35.1834 92.8333 34.4182 92.8333 33.5423C92.8333 32.6663 93.0095 31.9011 93.3618 31.2467C93.7242 30.5923 94.2275 30.0889 94.8718 29.7365C95.5161 29.3841 96.256 29.2079 97.0915 29.2079C97.9069 29.2079 98.6317 29.379 99.2659 29.7214C99.9001 30.0637 100.393 30.552 100.746 31.1863C101.108 31.8206 101.289 32.5606 101.289 33.4063ZM98.6468 32.7267C98.6468 32.2837 98.4958 31.9313 98.1938 31.6696C97.8918 31.4078 97.5143 31.2769 97.0613 31.2769C96.6284 31.2769 96.261 31.4028 95.959 31.6545C95.6671 31.9062 95.4859 32.2636 95.4154 32.7267H98.6468Z" fill="white"/>
<path d="M113.93 30.5671C113.93 31.1813 113.789 31.7451 113.507 32.2586C113.225 32.762 112.792 33.1697 112.208 33.4818C111.625 33.794 110.9 33.95 110.034 33.95H108.433V37.7558H105.851V27.154H110.034C110.88 27.154 111.594 27.3 112.178 27.5919C112.762 27.8839 113.2 28.2866 113.492 28.8001C113.784 29.3136 113.93 29.9026 113.93 30.5671ZM109.838 31.8961C110.331 31.8961 110.698 31.7803 110.94 31.5487C111.182 31.3172 111.302 30.99 111.302 30.5671C111.302 30.1442 111.182 29.817 110.94 29.5854C110.698 29.3539 110.331 29.2381 109.838 29.2381H108.433V31.8961H109.838Z" fill="white"/>
<path d="M117.856 26.5801V37.7558H115.274V26.5801H117.856Z" fill="white"/>
<path d="M119.214 33.5272C119.214 32.6613 119.375 31.9011 119.697 31.2467C120.029 30.5923 120.477 30.0889 121.041 29.7365C121.605 29.3841 122.234 29.2079 122.929 29.2079C123.523 29.2079 124.041 29.3287 124.484 29.5703C124.937 29.812 125.284 30.1291 125.526 30.5218V29.3287H128.108V37.7558H125.526V36.5627C125.274 36.9554 124.922 37.2725 124.469 37.5142C124.026 37.7558 123.507 37.8766 122.914 37.8766C122.229 37.8766 121.605 37.7004 121.041 37.348C120.477 36.9856 120.029 36.4771 119.697 35.8227C119.375 35.1582 119.214 34.393 119.214 33.5272ZM125.526 33.5423C125.526 32.8979 125.345 32.3894 124.982 32.0169C124.63 31.6444 124.197 31.4581 123.684 31.4581C123.17 31.4581 122.732 31.6444 122.37 32.0169C122.018 32.3794 121.841 32.8828 121.841 33.5272C121.841 34.1715 122.018 34.685 122.37 35.0676C122.732 35.4401 123.17 35.6264 123.684 35.6264C124.197 35.6264 124.63 35.4401 124.982 35.0676C125.345 34.6951 125.526 34.1866 125.526 33.5423Z" fill="white"/>
<path d="M138.583 29.3287L133.298 41.7579H130.52L132.452 37.4689L129.025 29.3287H131.909L133.857 34.5994L135.789 29.3287H138.583Z" fill="white"/>
</svg>
