<svg width="151" height="53" viewBox="0 0 151 53" fill="none" xmlns="http://www.w3.org/2000/svg">
<rect width="151" height="52.0191" rx="16" fill="url(#paint0_linear)"/>
<path d="M28.8495 14.2627C27.8021 14.3369 26.578 15.0241 25.8646 15.9189C25.2139 16.7307 24.6785 17.9363 24.8873 19.108C26.0316 19.1445 27.214 18.441 27.8991 17.5311C28.5401 16.6841 29.0251 15.486 28.8495 14.2627Z" fill="white"/>
<path d="M32.9873 21.0182C31.9819 19.7257 30.5689 18.9756 29.2344 18.9756C27.4727 18.9756 26.7276 19.8402 25.5036 19.8402C24.2416 19.8402 23.2828 18.9781 21.7593 18.9781C20.2628 18.9781 18.6693 19.9157 17.6589 21.5191C16.2386 23.7768 16.4816 28.0218 18.7835 31.6375C19.6072 32.9313 20.7072 34.3861 22.146 34.3987C23.4264 34.4113 23.7874 33.5568 25.522 33.548C27.2567 33.5379 27.5857 34.4101 28.8637 34.3962C30.3037 34.3849 31.4638 32.7727 32.2876 31.479C32.8781 30.5514 33.0978 30.0845 33.5557 29.0374C30.2251 27.7374 29.6911 22.882 32.9873 21.0182Z" fill="white"/>
<path d="M53.6922 15.7431C53.6922 16.4613 53.548 17.0889 53.2594 17.6258C52.9708 18.1561 52.5446 18.5689 51.9809 18.8642C51.4239 19.1529 50.7528 19.2972 49.9676 19.2972H47.7126V12.1991H49.9676C50.7528 12.1991 51.4239 12.3434 51.9809 12.632C52.5446 12.9139 52.9708 13.3234 53.2594 13.8603C53.548 14.3906 53.6922 15.0182 53.6922 15.7431ZM49.8971 18.4716C50.8232 18.4716 51.5313 18.2333 52.0212 17.7567C52.5111 17.2802 52.756 16.6089 52.756 15.7431C52.756 14.8772 52.5111 14.206 52.0212 13.7294C51.538 13.2462 50.83 13.0045 49.8971 13.0045H48.6287V18.4716H49.8971Z" fill="white"/>
<path d="M57.435 13.6992C57.9652 13.6992 58.4383 13.8133 58.8544 14.0416C59.2772 14.2698 59.606 14.5987 59.8409 15.0282C60.0825 15.4578 60.2033 15.9612 60.2033 16.5385C60.2033 17.1157 60.0825 17.6191 59.8409 18.0487C59.606 18.4716 59.2772 18.7971 58.8544 19.0253C58.4383 19.2535 57.9652 19.3676 57.435 19.3676C56.9048 19.3676 56.4283 19.2535 56.0055 19.0253C55.5894 18.7971 55.2606 18.4716 55.019 18.0487C54.7774 17.6191 54.6566 17.1157 54.6566 16.5385C54.6566 15.9612 54.7774 15.4578 55.019 15.0282C55.2606 14.5987 55.5894 14.2698 56.0055 14.0416C56.4283 13.8133 56.9048 13.6992 57.435 13.6992ZM57.435 14.5047C57.1062 14.5047 56.8008 14.5785 56.5189 14.7262C56.2438 14.8739 56.019 15.1021 55.8445 15.4108C55.6767 15.7129 55.5928 16.0888 55.5928 16.5385C55.5928 16.9815 55.6767 17.3574 55.8445 17.6661C56.019 17.9682 56.2438 18.193 56.5189 18.3407C56.8008 18.4883 57.1062 18.5622 57.435 18.5622C57.7638 18.5622 58.0658 18.4883 58.341 18.3407C58.6229 18.193 58.8477 17.9682 59.0155 17.6661C59.19 17.3574 59.2772 16.9815 59.2772 16.5385C59.2772 16.0888 59.19 15.7129 59.0155 15.4108C58.8477 15.1021 58.6229 14.8739 58.341 14.7262C58.0658 14.5785 57.7638 14.5047 57.435 14.5047Z" fill="white"/>
<path d="M68.9873 13.7697L67.3968 19.2972H66.4102L64.8902 14.7967L63.36 19.2972H62.3634L60.793 13.7697H61.7192L62.897 18.4212L64.4271 13.7697H65.3834L66.9236 18.4112L68.1115 13.7697H68.9873Z" fill="white"/>
<path d="M72.7509 13.6791C73.3952 13.6791 73.9153 13.8872 74.3112 14.3033C74.7072 14.7128 74.9052 15.3068 74.9052 16.0854V19.2972H73.9891V16.1659C73.9891 15.6156 73.8482 15.1927 73.5663 14.8974C73.2844 14.602 72.9019 14.4543 72.4187 14.4543C71.9154 14.4543 71.5127 14.6188 71.2107 14.9477C70.9087 15.2699 70.7577 15.7431 70.7577 16.3673V19.2972H69.8416V13.7697H70.7577V15.0786C70.8986 14.6289 71.1469 14.2832 71.5026 14.0416C71.865 13.7999 72.2811 13.6791 72.7509 13.6791Z" fill="white"/>
<path d="M77.2263 11.8467V19.2972H76.3102V11.8467H77.2263Z" fill="white"/>
<path d="M81.2057 13.6992C81.7359 13.6992 82.209 13.8133 82.6251 14.0416C83.0479 14.2698 83.3768 14.5987 83.6116 15.0282C83.8532 15.4578 83.974 15.9612 83.974 16.5385C83.974 17.1157 83.8532 17.6191 83.6116 18.0487C83.3768 18.4716 83.0479 18.7971 82.6251 19.0253C82.209 19.2535 81.7359 19.3676 81.2057 19.3676C80.6755 19.3676 80.199 19.2535 79.7762 19.0253C79.3602 18.7971 79.0313 18.4716 78.7897 18.0487C78.5481 17.6191 78.4273 17.1157 78.4273 16.5385C78.4273 15.9612 78.5481 15.4578 78.7897 15.0282C79.0313 14.5987 79.3602 14.2698 79.7762 14.0416C80.199 13.8133 80.6755 13.6992 81.2057 13.6992ZM81.2057 14.5047C80.8769 14.5047 80.5715 14.5785 80.2896 14.7262C80.0145 14.8739 79.7897 15.1021 79.6152 15.4108C79.4474 15.7129 79.3635 16.0888 79.3635 16.5385C79.3635 16.9815 79.4474 17.3574 79.6152 17.6661C79.7897 17.9682 80.0145 18.193 80.2896 18.3407C80.5715 18.4883 80.8769 18.5622 81.2057 18.5622C81.5345 18.5622 81.8366 18.4883 82.1117 18.3407C82.3936 18.193 82.6184 17.9682 82.7862 17.6661C82.9607 17.3574 83.0479 16.9815 83.0479 16.5385C83.0479 16.0888 82.9607 15.7129 82.7862 15.4108C82.6184 15.1021 82.3936 14.8739 82.1117 14.7262C81.8366 14.5785 81.5345 14.5047 81.2057 14.5047Z" fill="white"/>
<path d="M87.4327 13.6992C87.9696 13.6992 88.4226 13.8335 88.7917 14.102C89.1675 14.3704 89.4293 14.7295 89.5769 15.1793V13.7697H90.493V19.2972H89.5769V17.8876C89.4293 18.3373 89.1675 18.6964 88.7917 18.9649C88.4226 19.2334 87.9696 19.3676 87.4327 19.3676C86.9428 19.3676 86.5066 19.2535 86.1241 19.0253C85.7415 18.7971 85.4395 18.4716 85.2181 18.0487C85.0033 17.6191 84.8959 17.1157 84.8959 16.5385C84.8959 15.9612 85.0033 15.4578 85.2181 15.0282C85.4395 14.5987 85.7415 14.2698 86.1241 14.0416C86.5066 13.8133 86.9428 13.6992 87.4327 13.6992ZM87.6945 14.5148C87.1307 14.5148 86.6777 14.696 86.3355 15.0584C85.9999 15.4142 85.8321 15.9075 85.8321 16.5385C85.8321 17.1694 85.9999 17.6661 86.3355 18.0286C86.6777 18.3843 87.1307 18.5622 87.6945 18.5622C88.0569 18.5622 88.379 18.4783 88.6609 18.3105C88.9494 18.1427 89.1743 17.9077 89.3353 17.6057C89.4964 17.2969 89.5769 16.9412 89.5769 16.5385C89.5769 16.1357 89.4964 15.78 89.3353 15.4712C89.1743 15.1625 88.9494 14.9276 88.6609 14.7665C88.379 14.5987 88.0569 14.5148 87.6945 14.5148Z" fill="white"/>
<path d="M94.2159 13.6992C94.7528 13.6992 95.2058 13.8335 95.5749 14.102C95.9508 14.3704 96.2125 14.7295 96.3601 15.1793V11.8467H97.2762V19.2972H96.3601V17.8876C96.2125 18.3373 95.9508 18.6964 95.5749 18.9649C95.2058 19.2334 94.7528 19.3676 94.2159 19.3676C93.726 19.3676 93.2898 19.2535 92.9073 19.0253C92.5247 18.7971 92.2227 18.4716 92.0013 18.0487C91.7865 17.6191 91.6791 17.1157 91.6791 16.5385C91.6791 15.9612 91.7865 15.4578 92.0013 15.0282C92.2227 14.5987 92.5247 14.2698 92.9073 14.0416C93.2898 13.8133 93.726 13.6992 94.2159 13.6992ZM94.4777 14.5148C93.9139 14.5148 93.4609 14.696 93.1187 15.0584C92.7831 15.4142 92.6153 15.9075 92.6153 16.5385C92.6153 17.1694 92.7831 17.6661 93.1187 18.0286C93.4609 18.3843 93.9139 18.5622 94.4777 18.5622C94.8401 18.5622 95.1622 18.4783 95.4441 18.3105C95.7326 18.1427 95.9575 17.9077 96.1185 17.6057C96.2796 17.2969 96.3601 16.9412 96.3601 16.5385C96.3601 16.1357 96.2796 15.78 96.1185 15.4712C95.9575 15.1625 95.7326 14.9276 95.4441 14.7665C95.1622 14.5987 94.8401 14.5148 94.4777 14.5148Z" fill="white"/>
<path d="M103.728 13.6992C104.258 13.6992 104.731 13.8133 105.147 14.0416C105.57 14.2698 105.899 14.5987 106.134 15.0282C106.375 15.4578 106.496 15.9612 106.496 16.5385C106.496 17.1157 106.375 17.6191 106.134 18.0487C105.899 18.4716 105.57 18.7971 105.147 19.0253C104.731 19.2535 104.258 19.3676 103.728 19.3676C103.198 19.3676 102.721 19.2535 102.298 19.0253C101.882 18.7971 101.554 18.4716 101.312 18.0487C101.07 17.6191 100.95 17.1157 100.95 16.5385C100.95 15.9612 101.07 15.4578 101.312 15.0282C101.554 14.5987 101.882 14.2698 102.298 14.0416C102.721 13.8133 103.198 13.6992 103.728 13.6992ZM103.728 14.5047C103.399 14.5047 103.094 14.5785 102.812 14.7262C102.537 14.8739 102.312 15.1021 102.137 15.4108C101.97 15.7129 101.886 16.0888 101.886 16.5385C101.886 16.9815 101.97 17.3574 102.137 17.6661C102.312 17.9682 102.537 18.193 102.812 18.3407C103.094 18.4883 103.399 18.5622 103.728 18.5622C104.057 18.5622 104.359 18.4883 104.634 18.3407C104.916 18.193 105.141 17.9682 105.308 17.6661C105.483 17.3574 105.57 16.9815 105.57 16.5385C105.57 16.0888 105.483 15.7129 105.308 15.4108C105.141 15.1021 104.916 14.8739 104.634 14.7262C104.359 14.5785 104.057 14.5047 103.728 14.5047Z" fill="white"/>
<path d="M110.599 13.6791C111.243 13.6791 111.764 13.8872 112.16 14.3033C112.555 14.7128 112.753 15.3068 112.753 16.0854V19.2972H111.837V16.1659C111.837 15.6156 111.696 15.1927 111.415 14.8974C111.133 14.602 110.75 14.4543 110.267 14.4543C109.764 14.4543 109.361 14.6188 109.059 14.9477C108.757 15.2699 108.606 15.7431 108.606 16.3673V19.2972H107.69V13.7697H108.606V15.0786C108.747 14.6289 108.995 14.2832 109.351 14.0416C109.713 13.7999 110.129 13.6791 110.599 13.6791Z" fill="white"/>
<path d="M119.283 18.4917V19.2972H118.599C118.035 19.2972 117.612 19.1629 117.33 18.8944C117.055 18.6259 116.918 18.1762 116.918 17.5453V14.5651H116.092V13.7697H116.918V12.3904H117.844V13.7697H119.273V14.5651H117.844V17.5654C117.844 17.9212 117.907 18.1662 118.035 18.3004C118.169 18.4279 118.397 18.4917 118.719 18.4917H119.283Z" fill="white"/>
<path d="M123.31 13.6791C123.955 13.6791 124.475 13.8872 124.871 14.3033C125.267 14.7128 125.465 15.3068 125.465 16.0854V19.2972H124.549V16.1659C124.549 15.6156 124.408 15.1927 124.126 14.8974C123.844 14.602 123.461 14.4543 122.978 14.4543C122.475 14.4543 122.072 14.6188 121.77 14.9477C121.468 15.2699 121.317 15.7431 121.317 16.3673V19.2972H120.401V11.8467H121.317V15.0786C121.458 14.6289 121.706 14.2832 122.062 14.0416C122.424 13.7999 122.841 13.6791 123.31 13.6791Z" fill="white"/>
<path d="M131.953 16.2264C131.953 16.421 131.94 16.5888 131.913 16.7298H127.494C127.514 17.3607 127.692 17.8339 128.027 18.1494C128.37 18.4649 128.786 18.6226 129.276 18.6226C129.719 18.6226 130.088 18.5118 130.383 18.2903C130.685 18.0621 130.87 17.7601 130.937 17.3842H131.913C131.846 17.7668 131.695 18.1091 131.46 18.4112C131.232 18.7132 130.933 18.9481 130.564 19.1159C130.195 19.2837 129.779 19.3676 129.316 19.3676C128.786 19.3676 128.316 19.2535 127.907 19.0253C127.497 18.7971 127.175 18.4716 126.94 18.0487C126.712 17.6191 126.598 17.1157 126.598 16.5385C126.598 15.9612 126.712 15.4578 126.94 15.0282C127.175 14.5987 127.497 14.2698 127.907 14.0416C128.316 13.8133 128.786 13.6992 129.316 13.6992C129.853 13.6992 130.319 13.8133 130.715 14.0416C131.118 14.2698 131.423 14.5752 131.631 14.9578C131.846 15.3404 131.953 15.7632 131.953 16.2264ZM131.027 16.2868C131.047 15.8773 130.98 15.535 130.826 15.2598C130.672 14.9846 130.46 14.7799 130.192 14.6456C129.923 14.5114 129.631 14.4443 129.316 14.4443C128.813 14.4443 128.39 14.602 128.047 14.9175C127.705 15.2262 127.521 15.6827 127.494 16.2868H131.027Z" fill="white"/>
<path d="M54.4825 35.8074H50.481L49.8166 37.7556H47.0986L51.0095 27.1537H53.9842L57.8951 37.7556H55.1469L54.4825 35.8074ZM53.8181 33.8441L52.4893 29.9175L51.1454 33.8441H53.8181Z" fill="white"/>
<path d="M64.1536 29.2228C64.8482 29.2228 65.4673 29.399 66.0109 29.7513C66.5646 30.0937 66.9974 30.592 67.3095 31.2465C67.6316 31.8908 67.7927 32.656 67.7927 33.542C67.7927 34.418 67.6316 35.1832 67.3095 35.8376C66.9974 36.492 66.5646 36.9954 66.0109 37.3478C65.4673 37.6901 64.8482 37.8613 64.1536 37.8613C63.5093 37.8613 62.9557 37.7153 62.4926 37.4233C62.0295 37.1314 61.6923 36.7337 61.4809 36.2302V41.7728H58.8988V29.3285H61.4809V30.8538C61.6923 30.3504 62.0295 29.9527 62.4926 29.6607C62.9557 29.3688 63.5093 29.2228 64.1536 29.2228ZM63.3231 31.4881C62.7795 31.4881 62.3315 31.6744 61.9792 32.0469C61.6369 32.4094 61.4658 32.9077 61.4658 33.542C61.4658 34.1663 61.6369 34.6646 61.9792 35.0372C62.3315 35.4097 62.7795 35.596 63.3231 35.596C63.8768 35.596 64.3197 35.4147 64.6519 35.0523C64.9942 34.6898 65.1653 34.1864 65.1653 33.542C65.1653 32.8977 64.9942 32.3943 64.6519 32.0318C64.3197 31.6693 63.8768 31.4881 63.3231 31.4881Z" fill="white"/>
<path d="M74.3874 29.2228C75.082 29.2228 75.7011 29.399 76.2447 29.7513C76.7984 30.0937 77.2312 30.592 77.5433 31.2465C77.8654 31.8908 78.0265 32.656 78.0265 33.542C78.0265 34.418 77.8654 35.1832 77.5433 35.8376C77.2312 36.492 76.7984 36.9954 76.2447 37.3478C75.7011 37.6901 75.082 37.8613 74.3874 37.8613C73.7431 37.8613 73.1895 37.7153 72.7264 37.4233C72.2633 37.1314 71.9261 36.7337 71.7147 36.2302V41.7728H69.1326V29.3285H71.7147V30.8538C71.9261 30.3504 72.2633 29.9527 72.7264 29.6607C73.1895 29.3688 73.7431 29.2228 74.3874 29.2228ZM73.5569 31.4881C73.0133 31.4881 72.5653 31.6744 72.213 32.0469C71.8707 32.4094 71.6996 32.9077 71.6996 33.542C71.6996 34.1663 71.8707 34.6646 72.213 35.0372C72.5653 35.4097 73.0133 35.596 73.5569 35.596C74.1106 35.596 74.5535 35.4147 74.8857 35.0523C75.228 34.6898 75.3991 34.1864 75.3991 33.542C75.3991 32.8977 75.228 32.3943 74.8857 32.0318C74.5535 31.6693 74.1106 31.4881 73.5569 31.4881Z" fill="white"/>
<path d="M90.0601 34.7502C90.0601 35.314 89.9142 35.8326 89.6222 36.3058C89.3404 36.779 88.9176 37.1565 88.3538 37.4384C87.8002 37.7203 87.1257 37.8613 86.3304 37.8613C85.1325 37.8613 84.146 37.5693 83.3708 36.9854C82.5957 36.4014 82.1729 35.5859 82.1024 34.5388H84.8506C84.8909 34.9415 85.0318 35.2587 85.2734 35.4902C85.5251 35.7218 85.8422 35.8376 86.2247 35.8376C86.5569 35.8376 86.8187 35.747 87.0099 35.5657C87.2012 35.3845 87.2968 35.1429 87.2968 34.8408C87.2968 34.569 87.2062 34.3425 87.025 34.1612C86.8539 33.98 86.6375 33.834 86.3757 33.7233C86.114 33.6024 85.7516 33.4615 85.2885 33.3004C84.6141 33.0688 84.0604 32.8473 83.6275 32.6359C83.2047 32.4144 82.8373 32.0922 82.5252 31.6693C82.2232 31.2364 82.0722 30.6776 82.0722 29.993C82.0722 29.3587 82.2333 28.81 82.5554 28.3468C82.8776 27.8837 83.3205 27.5313 83.8842 27.2897C84.458 27.038 85.1124 26.9121 85.8472 26.9121C87.0351 26.9121 87.9763 27.194 88.6709 27.7578C89.3756 28.3217 89.7732 29.0969 89.8638 30.0836H87.0703C87.02 29.7312 86.8891 29.4543 86.6777 29.253C86.4764 29.0415 86.1996 28.9358 85.8472 28.9358C85.5452 28.9358 85.2986 29.0164 85.1073 29.1775C84.9261 29.3386 84.8355 29.5752 84.8355 29.8873C84.8355 30.139 84.9161 30.3554 85.0771 30.5367C85.2483 30.7078 85.4597 30.8488 85.7113 30.9595C85.963 31.0703 86.3254 31.2112 86.7985 31.3824C87.4831 31.614 88.0418 31.8455 88.4746 32.0771C88.9075 32.2986 89.28 32.6258 89.592 33.0588C89.9041 33.4917 90.0601 34.0555 90.0601 34.7502Z" fill="white"/>
<path d="M96.2593 35.5355V37.7556H95.0966C94.11 37.7556 93.3399 37.5139 92.7863 37.0307C92.2427 36.5373 91.9709 35.7268 91.9709 34.5992V31.5032H90.8384V29.3285H91.9709V27.2595H94.553V29.3285H96.2442V31.5032H94.553V34.6445C94.553 34.9768 94.6184 35.2083 94.7493 35.3392C94.8902 35.4701 95.1217 35.5355 95.4439 35.5355H96.2593Z" fill="white"/>
<path d="M101.652 29.2228C102.487 29.2228 103.232 29.399 103.886 29.7513C104.551 30.0937 105.069 30.592 105.442 31.2465C105.824 31.9009 106.016 32.6661 106.016 33.542C106.016 34.418 105.824 35.1832 105.442 35.8376C105.069 36.492 104.551 36.9954 103.886 37.3478C103.232 37.6901 102.487 37.8613 101.652 37.8613C100.816 37.8613 100.066 37.6901 99.4017 37.3478C98.7373 36.9954 98.2139 36.492 97.8313 35.8376C97.4589 35.1832 97.2726 34.418 97.2726 33.542C97.2726 32.6661 97.4589 31.9009 97.8313 31.2465C98.2139 30.592 98.7373 30.0937 99.4017 29.7513C100.066 29.399 100.816 29.2228 101.652 29.2228ZM101.652 31.4579C101.158 31.4579 100.741 31.6391 100.398 32.0016C100.066 32.354 99.9 32.8675 99.9 33.542C99.9 34.2166 100.066 34.7301 100.398 35.0825C100.741 35.4349 101.158 35.6111 101.652 35.6111C102.145 35.6111 102.558 35.4349 102.89 35.0825C103.222 34.7301 103.388 34.2166 103.388 33.542C103.388 32.8675 103.222 32.354 102.89 32.0016C102.558 31.6391 102.145 31.4579 101.652 31.4579Z" fill="white"/>
<path d="M109.937 30.9142C110.259 30.4007 110.671 29.993 111.175 29.6909C111.688 29.3889 112.242 29.2379 112.836 29.2379V32.0016H112.096C111.411 32.0016 110.878 32.1476 110.495 32.4396C110.123 32.7315 109.937 33.2249 109.937 33.9196V37.7556H107.354V29.3285H109.937V30.9142Z" fill="white"/>
<path d="M121.919 33.3155C121.919 33.5269 121.894 33.7585 121.844 34.0102H116C116.03 34.6445 116.192 35.1026 116.483 35.3845C116.775 35.6564 117.148 35.7923 117.601 35.7923C117.983 35.7923 118.301 35.6966 118.552 35.5053C118.804 35.314 118.97 35.0674 119.05 34.7653H121.784C121.673 35.3593 121.431 35.893 121.059 36.3662C120.686 36.8293 120.213 37.1968 119.639 37.4686C119.066 37.7304 118.426 37.8613 117.722 37.8613C116.896 37.8613 116.161 37.6901 115.517 37.3478C114.883 36.9954 114.385 36.492 114.022 35.8376C113.66 35.1832 113.479 34.418 113.479 33.542C113.479 32.656 113.655 31.8908 114.007 31.2465C114.369 30.592 114.873 30.0937 115.517 29.7513C116.161 29.399 116.896 29.2228 117.722 29.2228C118.557 29.2228 119.292 29.3939 119.926 29.7362C120.56 30.0786 121.049 30.5618 121.391 31.1861C121.743 31.8002 121.919 32.51 121.919 33.3155ZM119.307 32.9228C119.317 32.3691 119.166 31.9563 118.854 31.6844C118.552 31.4025 118.175 31.2616 117.722 31.2616C117.249 31.2616 116.856 31.4025 116.544 31.6844C116.232 31.9664 116.056 32.3792 116.015 32.9228H119.307Z" fill="white"/>
<defs>
<linearGradient id="paint0_linear" x1="-57.8833" y1="-21.8145" x2="151.007" y2="51.9989" gradientUnits="userSpaceOnUse">
<stop stop-color="#FDC07D"/>
<stop offset="1" stop-color="#EC6747"/>
</linearGradient>
</defs>
</svg>
