<svg width="209" height="72" viewBox="0 0 209 72" fill="none" xmlns="http://www.w3.org/2000/svg">
<rect width="209" height="72" rx="16" fill="url(#paint0_linear)"/>
<path d="M39.9306 19.7412C38.481 19.844 36.7866 20.7951 35.7993 22.0336C34.8985 23.1571 34.1576 24.8259 34.4465 26.4476C36.0304 26.4981 37.667 25.5244 38.6152 24.265C39.5024 23.0927 40.1736 21.4344 39.9306 19.7412Z" fill="white"/>
<path d="M45.6578 29.0918C44.2661 27.3028 42.3104 26.2646 40.4634 26.2646C38.025 26.2646 36.9936 27.4613 35.2995 27.4613C33.5527 27.4613 32.2257 26.2681 30.117 26.2681C28.0457 26.2681 25.8401 27.5659 24.4417 29.7851C22.4757 32.9101 22.8121 38.7856 25.9981 43.7901C27.1383 45.5808 28.6608 47.5945 30.6522 47.6119C32.4245 47.6293 32.924 46.4466 35.325 46.4344C37.726 46.4204 38.1813 47.6276 39.9502 47.6084C41.9434 47.5928 43.5491 45.3614 44.6892 43.5707C45.5066 42.2869 45.8107 41.6406 46.4445 40.1913C41.8346 38.3919 41.0955 31.6716 45.6578 29.0918Z" fill="white"/>
<path d="M74.3157 21.7905C74.3157 22.7846 74.116 23.6532 73.7166 24.3964C73.3172 25.1304 72.7273 25.7017 71.947 26.1105C71.1761 26.51 70.2472 26.7097 69.1604 26.7097H66.0393V16.8852H69.1604C70.2472 16.8852 71.1761 17.0849 71.947 17.4844C72.7273 17.8746 73.3172 18.4413 73.7166 19.1846C74.116 19.9185 74.3157 20.7871 74.3157 21.7905ZM69.0628 25.567C70.3447 25.567 71.3247 25.2372 72.0028 24.5776C72.6809 23.918 73.0199 22.9889 73.0199 21.7905C73.0199 20.592 72.6809 19.663 72.0028 19.0034C71.334 18.3345 70.354 18 69.0628 18H67.3072V25.567H69.0628Z" fill="white"/>
<path d="M79.4961 18.9616C80.2299 18.9616 80.8848 19.1195 81.4607 19.4354C82.0459 19.7513 82.501 20.2065 82.8261 20.8011C83.1605 21.3957 83.3277 22.0924 83.3277 22.8914C83.3277 23.6904 83.1605 24.3871 82.8261 24.9817C82.501 25.567 82.0459 26.0176 81.4607 26.3335C80.8848 26.6493 80.2299 26.8073 79.4961 26.8073C78.7623 26.8073 78.1027 26.6493 77.5175 26.3335C76.9416 26.0176 76.4865 25.567 76.1521 24.9817C75.8177 24.3871 75.6505 23.6904 75.6505 22.8914C75.6505 22.0924 75.8177 21.3957 76.1521 20.8011C76.4865 20.2065 76.9416 19.7513 77.5175 19.4354C78.1027 19.1195 78.7623 18.9616 79.4961 18.9616ZM79.4961 20.0764C79.0409 20.0764 78.6183 20.1786 78.2281 20.383C77.8473 20.5874 77.5361 20.9033 77.2946 21.3306C77.0624 21.7487 76.9463 22.2689 76.9463 22.8914C76.9463 23.5046 77.0624 24.0248 77.2946 24.4522C77.5361 24.8702 77.8473 25.1815 78.2281 25.3858C78.6183 25.5902 79.0409 25.6924 79.4961 25.6924C79.9512 25.6924 80.3692 25.5902 80.7501 25.3858C81.1402 25.1815 81.4514 24.8702 81.6836 24.4522C81.9251 24.0248 82.0459 23.5046 82.0459 22.8914C82.0459 22.2689 81.9251 21.7487 81.6836 21.3306C81.4514 20.9033 81.1402 20.5874 80.7501 20.383C80.3692 20.1786 79.9512 20.0764 79.4961 20.0764Z" fill="white"/>
<path d="M95.4857 19.0591L93.2842 26.7097H91.9187L89.8148 20.4806L87.6969 26.7097H86.3175L84.1439 19.0591H85.4258L87.056 25.4973L89.1739 19.0591H90.4975L92.6293 25.4834L94.2735 19.0591H95.4857Z" fill="white"/>
<path d="M100.695 18.9337C101.587 18.9337 102.307 19.2217 102.855 19.7977C103.403 20.3644 103.677 21.1866 103.677 22.2643V26.7097H102.409V22.3758C102.409 21.614 102.214 21.0287 101.823 20.6199C101.433 20.2111 100.904 20.0068 100.235 20.0068C99.5384 20.0068 98.9811 20.2344 98.5631 20.6896C98.1451 21.1355 97.9361 21.7905 97.9361 22.6545V26.7097H96.6681V19.0591H97.9361V20.8708C98.1311 20.2483 98.4748 19.7698 98.9671 19.4354C99.4688 19.1009 100.045 18.9337 100.695 18.9337Z" fill="white"/>
<path d="M106.889 16.3975V26.7097H105.621V16.3975H106.889Z" fill="white"/>
<path d="M112.397 18.9616C113.131 18.9616 113.786 19.1195 114.362 19.4354C114.947 19.7513 115.402 20.2065 115.727 20.8011C116.062 21.3957 116.229 22.0924 116.229 22.8914C116.229 23.6904 116.062 24.3871 115.727 24.9817C115.402 25.567 114.947 26.0176 114.362 26.3335C113.786 26.6493 113.131 26.8073 112.397 26.8073C111.663 26.8073 111.004 26.6493 110.419 26.3335C109.843 26.0176 109.388 25.567 109.053 24.9817C108.719 24.3871 108.552 23.6904 108.552 22.8914C108.552 22.0924 108.719 21.3957 109.053 20.8011C109.388 20.2065 109.843 19.7513 110.419 19.4354C111.004 19.1195 111.663 18.9616 112.397 18.9616ZM112.397 20.0764C111.942 20.0764 111.519 20.1786 111.129 20.383C110.748 20.5874 110.437 20.9033 110.196 21.3306C109.964 21.7487 109.847 22.2689 109.847 22.8914C109.847 23.5046 109.964 24.0248 110.196 24.4522C110.437 24.8702 110.748 25.1815 111.129 25.3858C111.519 25.5902 111.942 25.6924 112.397 25.6924C112.852 25.6924 113.27 25.5902 113.651 25.3858C114.041 25.1815 114.353 24.8702 114.585 24.4522C114.826 24.0248 114.947 23.5046 114.947 22.8914C114.947 22.2689 114.826 21.7487 114.585 21.3306C114.353 20.9033 114.041 20.5874 113.651 20.383C113.27 20.1786 112.852 20.0764 112.397 20.0764Z" fill="white"/>
<path d="M121.016 18.9616C121.759 18.9616 122.386 19.1474 122.897 19.519C123.417 19.8906 123.78 20.3877 123.984 21.0101V19.0591H125.252V26.7097H123.984V24.7588C123.78 25.3812 123.417 25.8782 122.897 26.2498C122.386 26.6215 121.759 26.8073 121.016 26.8073C120.338 26.8073 119.734 26.6493 119.205 26.3335C118.675 26.0176 118.257 25.567 117.951 24.9817C117.654 24.3871 117.505 23.6904 117.505 22.8914C117.505 22.0924 117.654 21.3957 117.951 20.8011C118.257 20.2065 118.675 19.7513 119.205 19.4354C119.734 19.1195 120.338 18.9616 121.016 18.9616ZM121.378 20.0904C120.598 20.0904 119.971 20.3412 119.497 20.8429C119.033 21.3353 118.801 22.0181 118.801 22.8914C118.801 23.7647 119.033 24.4522 119.497 24.9538C119.971 25.4462 120.598 25.6924 121.378 25.6924C121.88 25.6924 122.326 25.5763 122.716 25.344C123.115 25.1118 123.427 24.7866 123.65 24.3686C123.872 23.9412 123.984 23.4488 123.984 22.8914C123.984 22.334 123.872 21.8416 123.65 21.4142C123.427 20.9869 123.115 20.6617 122.716 20.4388C122.326 20.2065 121.88 20.0904 121.378 20.0904Z" fill="white"/>
<path d="M130.405 18.9616C131.148 18.9616 131.775 19.1474 132.286 19.519C132.806 19.8906 133.168 20.3877 133.373 21.0101V16.3975H134.641V26.7097H133.373V24.7588C133.168 25.3812 132.806 25.8782 132.286 26.2498C131.775 26.6215 131.148 26.8073 130.405 26.8073C129.727 26.8073 129.123 26.6493 128.593 26.3335C128.064 26.0176 127.646 25.567 127.339 24.9817C127.042 24.3871 126.894 23.6904 126.894 22.8914C126.894 22.0924 127.042 21.3957 127.339 20.8011C127.646 20.2065 128.064 19.7513 128.593 19.4354C129.123 19.1195 129.727 18.9616 130.405 18.9616ZM130.767 20.0904C129.987 20.0904 129.36 20.3412 128.886 20.8429C128.422 21.3353 128.189 22.0181 128.189 22.8914C128.189 23.7647 128.422 24.4522 128.886 24.9538C129.36 25.4462 129.987 25.6924 130.767 25.6924C131.269 25.6924 131.715 25.5763 132.105 25.344C132.504 25.1118 132.815 24.7866 133.038 24.3686C133.261 23.9412 133.373 23.4488 133.373 22.8914C133.373 22.334 133.261 21.8416 133.038 21.4142C132.815 20.9869 132.504 20.6617 132.105 20.4388C131.715 20.2065 131.269 20.0904 130.767 20.0904Z" fill="white"/>
<path d="M143.57 18.9616C144.304 18.9616 144.959 19.1195 145.535 19.4354C146.12 19.7513 146.575 20.2065 146.9 20.8011C147.235 21.3957 147.402 22.0924 147.402 22.8914C147.402 23.6904 147.235 24.3871 146.9 24.9817C146.575 25.567 146.12 26.0176 145.535 26.3335C144.959 26.6493 144.304 26.8073 143.57 26.8073C142.837 26.8073 142.177 26.6493 141.592 26.3335C141.016 26.0176 140.561 25.567 140.226 24.9817C139.892 24.3871 139.725 23.6904 139.725 22.8914C139.725 22.0924 139.892 21.3957 140.226 20.8011C140.561 20.2065 141.016 19.7513 141.592 19.4354C142.177 19.1195 142.837 18.9616 143.57 18.9616ZM143.57 20.0764C143.115 20.0764 142.693 20.1786 142.302 20.383C141.922 20.5874 141.61 20.9033 141.369 21.3306C141.137 21.7487 141.021 22.2689 141.021 22.8914C141.021 23.5046 141.137 24.0248 141.369 24.4522C141.61 24.8702 141.922 25.1815 142.302 25.3858C142.693 25.5902 143.115 25.6924 143.57 25.6924C144.026 25.6924 144.444 25.5902 144.824 25.3858C145.214 25.1815 145.526 24.8702 145.758 24.4522C145.999 24.0248 146.12 23.5046 146.12 22.8914C146.12 22.2689 145.999 21.7487 145.758 21.3306C145.526 20.9033 145.214 20.5874 144.824 20.383C144.444 20.1786 144.026 20.0764 143.57 20.0764Z" fill="white"/>
<path d="M153.081 18.9337C153.973 18.9337 154.693 19.2217 155.241 19.7977C155.789 20.3644 156.063 21.1866 156.063 22.2643V26.7097H154.795V22.3758C154.795 21.614 154.6 21.0287 154.21 20.6199C153.819 20.2111 153.29 20.0068 152.621 20.0068C151.924 20.0068 151.367 20.2344 150.949 20.6896C150.531 21.1355 150.322 21.7905 150.322 22.6545V26.7097H149.054V19.0591H150.322V20.8708C150.517 20.2483 150.861 19.7698 151.353 19.4354C151.855 19.1009 152.431 18.9337 153.081 18.9337Z" fill="white"/>
<path d="M165.101 25.5949V26.7097H164.153C163.373 26.7097 162.788 26.5239 162.397 26.1523C162.017 25.7807 161.826 25.1582 161.826 24.2849V20.16H160.684V19.0591H161.826V17.15H163.108V19.0591H165.087V20.16H163.108V24.3128C163.108 24.8052 163.196 25.1443 163.373 25.3301C163.559 25.5066 163.874 25.5949 164.32 25.5949H165.101Z" fill="white"/>
<path d="M170.675 18.9337C171.566 18.9337 172.286 19.2217 172.834 19.7977C173.382 20.3644 173.656 21.1866 173.656 22.2643V26.7097H172.388V22.3758C172.388 21.614 172.193 21.0287 171.803 20.6199C171.413 20.2111 170.883 20.0068 170.215 20.0068C169.518 20.0068 168.961 20.2344 168.543 20.6896C168.125 21.1355 167.916 21.7905 167.916 22.6545V26.7097H166.648V16.3975H167.916V20.8708C168.111 20.2483 168.454 19.7698 168.947 19.4354C169.448 19.1009 170.024 18.9337 170.675 18.9337Z" fill="white"/>
<path d="M182.637 22.4594C182.637 22.7288 182.619 22.9611 182.582 23.1562H176.465C176.493 24.0295 176.739 24.6844 177.203 25.1211C177.677 25.5577 178.253 25.776 178.931 25.776C179.544 25.776 180.055 25.6228 180.464 25.3162C180.882 25.0003 181.137 24.5822 181.23 24.062H182.582C182.489 24.5915 182.28 25.0653 181.955 25.4834C181.639 25.9015 181.225 26.2266 180.715 26.4589C180.204 26.6911 179.628 26.8073 178.987 26.8073C178.253 26.8073 177.603 26.6493 177.036 26.3335C176.47 26.0176 176.024 25.567 175.699 24.9817C175.383 24.3871 175.225 23.6904 175.225 22.8914C175.225 22.0924 175.383 21.3957 175.699 20.8011C176.024 20.2065 176.47 19.7513 177.036 19.4354C177.603 19.1195 178.253 18.9616 178.987 18.9616C179.73 18.9616 180.376 19.1195 180.924 19.4354C181.481 19.7513 181.904 20.174 182.191 20.7035C182.489 21.2331 182.637 21.8184 182.637 22.4594ZM181.355 22.543C181.383 21.9763 181.29 21.5025 181.077 21.1216C180.863 20.7407 180.571 20.4573 180.199 20.2715C179.827 20.0857 179.423 19.9928 178.987 19.9928C178.29 19.9928 177.705 20.2111 177.231 20.6478C176.757 21.0751 176.502 21.7069 176.465 22.543H181.355Z" fill="white"/>
<path d="M75.4097 49.562H69.8712L68.9516 52.2585H65.1896L70.6027 37.5845H74.72L80.1331 52.2585H76.3293L75.4097 49.562ZM74.4901 46.8446L72.6509 41.4097L70.7908 46.8446H74.4901Z" fill="white"/>
<path d="M88.7955 40.4482C89.7569 40.4482 90.6138 40.6921 91.3662 41.1798C92.1325 41.6536 92.7316 42.3434 93.1636 43.2492C93.6094 44.1411 93.8324 45.2002 93.8324 46.4265C93.8324 47.6389 93.6094 48.698 93.1636 49.6038C92.7316 50.5096 92.1325 51.2064 91.3662 51.6941C90.6138 52.1679 89.7569 52.4048 88.7955 52.4048C87.9037 52.4048 87.1374 52.2028 86.4965 51.7986C85.8555 51.3945 85.3888 50.8441 85.0962 50.1473V57.8188H81.5223V40.5945H85.0962V42.7057C85.3888 42.009 85.8555 41.4585 86.4965 41.0544C87.1374 40.6503 87.9037 40.4482 88.7955 40.4482ZM87.646 43.5837C86.8936 43.5837 86.2735 43.8415 85.7859 44.3571C85.3121 44.8588 85.0753 45.5486 85.0753 46.4265C85.0753 47.2905 85.3121 47.9803 85.7859 48.4959C86.2735 49.0115 86.8936 49.2694 87.646 49.2694C88.4123 49.2694 89.0254 49.0185 89.4852 48.5168C89.9589 48.0152 90.1958 47.3184 90.1958 46.4265C90.1958 45.5346 89.9589 44.8379 89.4852 44.3362C89.0254 43.8345 88.4123 43.5837 87.646 43.5837Z" fill="white"/>
<path d="M102.96 40.4482C103.922 40.4482 104.778 40.6921 105.531 41.1798C106.297 41.6536 106.896 42.3434 107.328 43.2492C107.774 44.1411 107.997 45.2002 107.997 46.4265C107.997 47.6389 107.774 48.698 107.328 49.6038C106.896 50.5096 106.297 51.2064 105.531 51.6941C104.778 52.1679 103.922 52.4048 102.96 52.4048C102.068 52.4048 101.302 52.2028 100.661 51.7986C100.02 51.3945 99.5534 50.8441 99.2608 50.1473V57.8188H95.6869V40.5945H99.2608V42.7057C99.5534 42.009 100.02 41.4585 100.661 41.0544C101.302 40.6503 102.068 40.4482 102.96 40.4482ZM101.811 43.5837C101.058 43.5837 100.438 43.8415 99.9505 44.3571C99.4768 44.8588 99.2399 45.5486 99.2399 46.4265C99.2399 47.2905 99.4768 47.9803 99.9505 48.4959C100.438 49.0115 101.058 49.2694 101.811 49.2694C102.577 49.2694 103.19 49.0185 103.65 48.5168C104.124 48.0152 104.36 47.3184 104.36 46.4265C104.36 45.5346 104.124 44.8379 103.65 44.3362C103.19 43.8345 102.577 43.5837 101.811 43.5837Z" fill="white"/>
<path d="M124.653 48.0988C124.653 48.8792 124.451 49.5968 124.047 50.2518C123.657 50.9068 123.071 51.4294 122.291 51.8195C121.525 52.2097 120.591 52.4048 119.491 52.4048C117.832 52.4048 116.467 52.0007 115.394 51.1925C114.321 50.3842 113.736 49.2554 113.639 47.8061H117.442C117.498 48.3636 117.693 48.8025 118.028 49.123C118.376 49.4435 118.815 49.6038 119.344 49.6038C119.804 49.6038 120.166 49.4784 120.431 49.2275C120.696 48.9767 120.828 48.6423 120.828 48.2242C120.828 47.8479 120.703 47.5344 120.452 47.2835C120.215 47.0327 119.916 46.8306 119.553 46.6774C119.191 46.5101 118.689 46.315 118.048 46.0921C117.115 45.7715 116.349 45.465 115.749 45.1723C115.164 44.8657 114.656 44.4198 114.224 43.8345C113.806 43.2353 113.597 42.4619 113.597 41.5143C113.597 40.6363 113.82 39.8768 114.266 39.2358C114.711 38.5948 115.324 38.107 116.105 37.7726C116.899 37.4242 117.805 37.25 118.822 37.25C120.466 37.25 121.769 37.6402 122.73 38.4206C123.705 39.201 124.256 40.274 124.381 41.6397H120.515C120.445 41.1519 120.264 40.7687 119.971 40.49C119.693 40.1974 119.309 40.051 118.822 40.051C118.404 40.051 118.062 40.1625 117.798 40.3855C117.547 40.6085 117.421 40.9359 117.421 41.3679C117.421 41.7163 117.533 42.0159 117.756 42.2668C117.993 42.5037 118.285 42.6988 118.634 42.8521C118.982 43.0054 119.484 43.2005 120.138 43.4374C121.086 43.7579 121.859 44.0784 122.458 44.3989C123.057 44.7055 123.573 45.1584 124.005 45.7576C124.437 46.3568 124.653 47.1372 124.653 48.0988Z" fill="white"/>
<path d="M133.233 49.1857V52.2585H131.624C130.258 52.2585 129.192 51.9241 128.426 51.2552C127.674 50.5723 127.298 49.4505 127.298 47.8897V43.6046H125.73V40.5945H127.298V37.7308H130.871V40.5945H133.212V43.6046H130.871V47.9525C130.871 48.4123 130.962 48.7328 131.143 48.914C131.338 49.0952 131.659 49.1857 132.105 49.1857H133.233Z" fill="white"/>
<path d="M140.697 40.4482C141.853 40.4482 142.884 40.6921 143.79 41.1798C144.71 41.6536 145.427 42.3434 145.943 43.2492C146.472 44.155 146.737 45.2141 146.737 46.4265C146.737 47.6389 146.472 48.698 145.943 49.6038C145.427 50.5096 144.71 51.2064 143.79 51.6941C142.884 52.1679 141.853 52.4048 140.697 52.4048C139.54 52.4048 138.502 52.1679 137.583 51.6941C136.663 51.2064 135.938 50.5096 135.409 49.6038C134.893 48.698 134.636 47.6389 134.636 46.4265C134.636 45.2141 134.893 44.155 135.409 43.2492C135.938 42.3434 136.663 41.6536 137.583 41.1798C138.502 40.6921 139.54 40.4482 140.697 40.4482ZM140.697 43.5419C140.014 43.5419 139.436 43.7927 138.962 44.2944C138.502 44.7821 138.272 45.4928 138.272 46.4265C138.272 47.3602 138.502 48.0709 138.962 48.5586C139.436 49.0464 140.014 49.2903 140.697 49.2903C141.379 49.2903 141.951 49.0464 142.411 48.5586C142.87 48.0709 143.1 47.3602 143.1 46.4265C143.1 45.4928 142.87 44.7821 142.411 44.2944C141.951 43.7927 141.379 43.5419 140.697 43.5419Z" fill="white"/>
<path d="M152.164 42.7894C152.61 42.0786 153.181 41.5143 153.878 41.0962C154.588 40.6781 155.355 40.4691 156.177 40.4691V44.2944H155.153C154.205 44.2944 153.467 44.4965 152.937 44.9006C152.422 45.3047 152.164 45.9875 152.164 46.9491V52.2585H148.59V40.5945H152.164V42.7894Z" fill="white"/>
<path d="M168.75 46.113C168.75 46.4056 168.715 46.7261 168.645 47.0745H160.557C160.599 47.9525 160.822 48.5865 161.226 48.9767C161.63 49.353 162.145 49.5411 162.772 49.5411C163.302 49.5411 163.741 49.4087 164.089 49.1439C164.437 48.8792 164.667 48.5377 164.779 48.1197H168.561C168.408 48.9419 168.074 49.6805 167.558 50.3354C167.043 50.9765 166.388 51.4851 165.594 51.8614C164.799 52.2237 163.915 52.4048 162.939 52.4048C161.797 52.4048 160.78 52.1679 159.888 51.6941C159.01 51.2064 158.32 50.5096 157.819 49.6038C157.317 48.698 157.066 47.6389 157.066 46.4265C157.066 45.2002 157.31 44.1411 157.798 43.2492C158.3 42.3434 158.996 41.6536 159.888 41.1798C160.78 40.6921 161.797 40.4482 162.939 40.4482C164.096 40.4482 165.113 40.6851 165.991 41.1589C166.869 41.6327 167.544 42.3016 168.018 43.1656C168.506 44.0157 168.75 44.9981 168.75 46.113ZM165.134 45.5695C165.148 44.803 164.939 44.2317 164.507 43.8554C164.089 43.4652 163.566 43.2701 162.939 43.2701C162.285 43.2701 161.741 43.4652 161.309 43.8554C160.877 44.2456 160.633 44.817 160.578 45.5695H165.134Z" fill="white"/>
<defs>
<linearGradient id="paint0_linear" x1="-80.1167" y1="-30.1935" x2="209.01" y2="71.972" gradientUnits="userSpaceOnUse">
<stop stop-color="#FDC07D"/>
<stop offset="1" stop-color="#EC6747"/>
</linearGradient>
</defs>
</svg>
