<svg width="8" height="16" viewBox="0 0 8 16" fill="none" xmlns="http://www.w3.org/2000/svg">
<path d="M4.44241 0.183313C4.4426 0.1835 4.44282 0.183657 4.44301 0.183875L7.693 3.44963C7.93647 3.69428 7.93556 4.09 7.69088 4.33353C7.44622 4.57703 7.0505 4.57609 6.807 4.33144L4.62501 2.13881L4.62501 15.375C4.62501 15.7202 4.34519 16 4.00001 16C3.65482 16 3.37501 15.7202 3.37501 15.375L3.37501 2.13884L1.19301 4.33141C0.94951 4.57606 0.553792 4.577 0.309135 4.3335C0.0644168 4.08997 0.0635733 3.69422 0.307011 3.44959L3.55701 0.183844C3.55719 0.183656 3.55741 0.1835 3.5576 0.183281C3.80191 -0.0615004 4.19891 -0.0607184 4.44241 0.183313Z" fill="#1D1D20"/>
</svg>
