<svg width="16" height="16" viewBox="0 0 16 16" fill="none" xmlns="http://www.w3.org/2000/svg">
<g clip-path="url(#clip0)">
<path d="M8.44241 15.8167C8.4426 15.8165 8.44282 15.8163 8.44301 15.8161L11.693 12.5504C11.9365 12.3057 11.9356 11.91 11.6909 11.6665C11.4462 11.423 11.0505 11.4239 10.807 11.6686L8.62501 13.8612L8.62501 0.625C8.62501 0.279812 8.34519 -1.54293e-07 8.00001 -1.69381e-07C7.65482 -1.8447e-07 7.37501 0.279812 7.37501 0.625L7.37501 13.8612L5.19301 11.6686C4.94951 11.4239 4.55379 11.423 4.30914 11.6665C4.06442 11.91 4.06357 12.3058 4.30701 12.5504L7.55701 15.8162C7.55719 15.8163 7.55741 15.8165 7.5576 15.8167C7.80191 16.0615 8.19891 16.0607 8.44241 15.8167Z" fill="#1D1D20"/>
</g>
<defs>
<clipPath id="clip0">
<rect width="16" height="16" fill="white" transform="translate(16) rotate(90)"/>
</clipPath>
</defs>
</svg>
