<svg width="32" height="32" viewBox="0 0 32 32" fill="none" xmlns="http://www.w3.org/2000/svg">
<path fill-rule="evenodd" clip-rule="evenodd" d="M8.4375 0H23.5625C28.2148 0 32 3.78516 32 8.4375V23.5625C32 28.2148 28.2148 32 23.5625 32H8.4375C3.78516 32 0 28.2148 0 23.5625V8.4375C0 3.78516 3.78516 0 8.4375 0ZM20.641 9.98874H18.9977C17.7092 9.98874 17.4602 10.6217 17.4595 11.5465V13.7507H20.3672L19.969 16.9502H17.4602V25H14.2547V16.9495H11.6402V13.75H14.2547V11.2292C14.2547 8.49024 15.8777 6.99999 18.247 6.99999C19.3825 6.99999 20.3575 7.08774 20.641 7.12674V9.98874Z" fill="white"/>
</svg>
