<svg width="209" height="72" viewBox="0 0 209 72" fill="none" xmlns="http://www.w3.org/2000/svg">
<rect width="209" height="72" rx="16" fill="white"/>
<path d="M38.069 36.0027L24.2471 49.4801C23.5999 49.0321 23.2156 48.2871 23.2224 47.4933V24.5122C23.2156 23.7184 23.5999 22.9733 24.2471 22.5254L38.069 36.0027Z" fill="#2196F3"/>
<path d="M42.9054 31.2948L38.069 36.0024L24.2472 22.5251C24.2993 22.4842 24.3535 22.4462 24.4096 22.4112C25.1401 21.9628 26.0526 21.9484 26.7966 22.3732L42.9054 31.2948Z" fill="#4CAF50"/>
<path d="M48.7665 36.0025C48.7756 36.8986 48.2947 37.7264 47.5168 38.1538L42.9054 40.7101L38.069 36.0025L42.9054 31.2949L47.5168 33.8512C48.2947 34.2786 48.7756 35.1064 48.7665 36.0025Z" fill="#FFC107"/>
<path d="M42.9054 40.7095L26.7966 49.6311C26.0509 50.0494 25.142 50.0349 24.4096 49.5932C24.3535 49.5582 24.2993 49.5202 24.2472 49.4793L38.0691 36.002L42.9054 40.7095Z" fill="#F44336"/>
<path d="M69.1185 16.9967C70.1774 16.9967 71.0924 17.1964 71.8634 17.5959C72.6436 17.9861 73.2381 18.5482 73.6468 19.2821C74.0648 20.016 74.2738 20.88 74.2738 21.8741C74.2738 22.8682 74.0648 23.7322 73.6468 24.4661C73.2381 25.1908 72.6436 25.7482 71.8634 26.1384C71.0924 26.5193 70.1774 26.7097 69.1185 26.7097H66.095V16.9967H69.1185ZM69.1185 25.6646C70.3725 25.6646 71.3293 25.3348 71.9888 24.6751C72.6483 24.0062 72.978 23.0726 72.978 21.8741C72.978 20.6664 72.6436 19.7234 71.9748 19.0452C71.3153 18.367 70.3632 18.0279 69.1185 18.0279H67.3629V25.6646H69.1185Z" fill="#131D35"/>
<path d="M79.2763 26.8351C78.5611 26.8351 77.9109 26.6726 77.3257 26.3474C76.7498 26.0222 76.2946 25.5624 75.9602 24.9678C75.6351 24.3639 75.4725 23.6671 75.4725 22.8775C75.4725 22.0971 75.6397 21.4096 75.9741 20.815C76.3178 20.2111 76.7823 19.7513 77.3675 19.4354C77.9527 19.1102 78.6075 18.9477 79.3321 18.9477C80.0566 18.9477 80.7115 19.1102 81.2967 19.4354C81.8819 19.7513 82.3417 20.2065 82.6761 20.8011C83.0198 21.3957 83.1916 22.0878 83.1916 22.8775C83.1916 23.6671 83.0151 24.3639 82.6621 24.9678C82.3185 25.5624 81.8494 26.0222 81.2549 26.3474C80.6604 26.6726 80.0009 26.8351 79.2763 26.8351ZM79.2763 25.7203C79.7315 25.7203 80.1588 25.6135 80.5582 25.3998C80.9576 25.1861 81.2781 24.8656 81.5196 24.4382C81.7704 24.0109 81.8958 23.4906 81.8958 22.8775C81.8958 22.2643 81.7751 21.744 81.5335 21.3167C81.292 20.8893 80.9762 20.5735 80.5861 20.3691C80.1959 20.1554 79.7733 20.0486 79.3181 20.0486C78.8537 20.0486 78.4264 20.1554 78.0363 20.3691C77.6554 20.5735 77.3489 20.8893 77.1167 21.3167C76.8845 21.744 76.7683 22.2643 76.7683 22.8775C76.7683 23.4999 76.8798 24.0248 77.1027 24.4522C77.335 24.8795 77.6415 25.2 78.0223 25.4137C78.4032 25.6181 78.8212 25.7203 79.2763 25.7203Z" fill="#131D35"/>
<path d="M95.03 19.0731L92.6474 26.7097H91.3377L89.4985 20.6478L87.6593 26.7097H86.3496L83.953 19.0731H85.2488L87.0044 25.4834L88.8994 19.0731H90.1952L92.0483 25.4973L93.776 19.0731H95.03Z" fill="#131D35"/>
<path d="M100.009 18.9337C100.937 18.9337 101.69 19.2171 102.266 19.7838C102.842 20.3412 103.13 21.1495 103.13 22.2086V26.7097H101.876V22.3897C101.876 21.6279 101.685 21.0473 101.304 20.6478C100.924 20.239 100.403 20.0346 99.7439 20.0346C99.0751 20.0346 98.541 20.2437 98.1415 20.6617C97.7514 21.0798 97.5563 21.6883 97.5563 22.4873V26.7097H96.2884V19.0731H97.5563V20.16C97.8071 19.7698 98.1462 19.4679 98.5735 19.2542C99.01 19.0406 99.4884 18.9337 100.009 18.9337Z" fill="#131D35"/>
<path d="M106.469 16.3975V26.7097H105.201V16.3975H106.469Z" fill="#131D35"/>
<path d="M111.96 26.8351C111.245 26.8351 110.594 26.6726 110.009 26.3474C109.433 26.0222 108.978 25.5624 108.644 24.9678C108.319 24.3639 108.156 23.6671 108.156 22.8775C108.156 22.0971 108.323 21.4096 108.658 20.815C109.001 20.2111 109.466 19.7513 110.051 19.4354C110.636 19.1102 111.291 18.9477 112.016 18.9477C112.74 18.9477 113.395 19.1102 113.98 19.4354C114.565 19.7513 115.025 20.2065 115.36 20.8011C115.703 21.3957 115.875 22.0878 115.875 22.8775C115.875 23.6671 115.699 24.3639 115.346 24.9678C115.002 25.5624 114.533 26.0222 113.938 26.3474C113.344 26.6726 112.684 26.8351 111.96 26.8351ZM111.96 25.7203C112.415 25.7203 112.842 25.6135 113.242 25.3998C113.641 25.1861 113.962 24.8656 114.203 24.4382C114.454 24.0109 114.579 23.4906 114.579 22.8775C114.579 22.2643 114.459 21.744 114.217 21.3167C113.975 20.8893 113.66 20.5735 113.27 20.3691C112.879 20.1554 112.457 20.0486 112.002 20.0486C111.537 20.0486 111.11 20.1554 110.72 20.3691C110.339 20.5735 110.032 20.8893 109.8 21.3167C109.568 21.744 109.452 22.2643 109.452 22.8775C109.452 23.4999 109.563 24.0248 109.786 24.4522C110.018 24.8795 110.325 25.2 110.706 25.4137C111.087 25.6181 111.505 25.7203 111.96 25.7203Z" fill="#131D35"/>
<path d="M117.068 22.8635C117.068 22.0831 117.226 21.4003 117.542 20.815C117.858 20.2204 118.29 19.7606 118.838 19.4354C119.395 19.1102 120.013 18.9477 120.691 18.9477C121.36 18.9477 121.94 19.0917 122.433 19.3797C122.925 19.6677 123.292 20.03 123.534 20.4666V19.0731H124.815V26.7097H123.534V25.2883C123.283 25.7342 122.907 26.1058 122.405 26.4031C121.913 26.6911 121.337 26.8351 120.677 26.8351C119.999 26.8351 119.386 26.6679 118.838 26.3335C118.29 25.999 117.858 25.5298 117.542 24.926C117.226 24.3221 117.068 23.6346 117.068 22.8635ZM123.534 22.8775C123.534 22.3015 123.417 21.7998 123.185 21.3724C122.953 20.9451 122.637 20.6199 122.238 20.3969C121.848 20.1647 121.416 20.0486 120.942 20.0486C120.468 20.0486 120.036 20.16 119.646 20.383C119.256 20.606 118.945 20.9311 118.713 21.3585C118.48 21.7858 118.364 22.2875 118.364 22.8635C118.364 23.4488 118.48 23.9598 118.713 24.3964C118.945 24.8238 119.256 25.1536 119.646 25.3858C120.036 25.6088 120.468 25.7203 120.942 25.7203C121.416 25.7203 121.848 25.6088 122.238 25.3858C122.637 25.1536 122.953 24.8238 123.185 24.3964C123.417 23.9598 123.534 23.4535 123.534 22.8775Z" fill="#131D35"/>
<path d="M126.484 22.8635C126.484 22.0831 126.642 21.4003 126.958 20.815C127.274 20.2204 127.706 19.7606 128.254 19.4354C128.811 19.1102 129.434 18.9477 130.121 18.9477C130.715 18.9477 131.268 19.087 131.779 19.3657C132.29 19.6351 132.68 19.9928 132.949 20.4388V16.3975H134.231V26.7097H132.949V25.2744C132.699 25.7296 132.327 26.1058 131.835 26.4031C131.342 26.6911 130.767 26.8351 130.107 26.8351C129.429 26.8351 128.811 26.6679 128.254 26.3335C127.706 25.999 127.274 25.5298 126.958 24.926C126.642 24.3221 126.484 23.6346 126.484 22.8635ZM132.949 22.8775C132.949 22.3015 132.833 21.7998 132.601 21.3724C132.369 20.9451 132.053 20.6199 131.654 20.3969C131.263 20.1647 130.832 20.0486 130.358 20.0486C129.884 20.0486 129.452 20.16 129.062 20.383C128.672 20.606 128.361 20.9311 128.128 21.3585C127.896 21.7858 127.78 22.2875 127.78 22.8635C127.78 23.4488 127.896 23.9598 128.128 24.3964C128.361 24.8238 128.672 25.1536 129.062 25.3858C129.452 25.6088 129.884 25.7203 130.358 25.7203C130.832 25.7203 131.263 25.6088 131.654 25.3858C132.053 25.1536 132.369 24.8238 132.601 24.3964C132.833 23.9598 132.949 23.4535 132.949 22.8775Z" fill="#131D35"/>
<path d="M143.419 26.8351C142.703 26.8351 142.053 26.6726 141.468 26.3474C140.892 26.0222 140.437 25.5624 140.103 24.9678C139.777 24.3639 139.615 23.6671 139.615 22.8775C139.615 22.0971 139.782 21.4096 140.116 20.815C140.46 20.2111 140.925 19.7513 141.51 19.4354C142.095 19.1102 142.75 18.9477 143.474 18.9477C144.199 18.9477 144.854 19.1102 145.439 19.4354C146.024 19.7513 146.484 20.2065 146.818 20.8011C147.162 21.3957 147.334 22.0878 147.334 22.8775C147.334 23.6671 147.157 24.3639 146.804 24.9678C146.461 25.5624 145.992 26.0222 145.397 26.3474C144.803 26.6726 144.143 26.8351 143.419 26.8351ZM143.419 25.7203C143.874 25.7203 144.301 25.6135 144.701 25.3998C145.1 25.1861 145.42 24.8656 145.662 24.4382C145.913 24.0109 146.038 23.4906 146.038 22.8775C146.038 22.2643 145.917 21.744 145.676 21.3167C145.434 20.8893 145.119 20.5735 144.728 20.3691C144.338 20.1554 143.916 20.0486 143.46 20.0486C142.996 20.0486 142.569 20.1554 142.179 20.3691C141.798 20.5735 141.491 20.8893 141.259 21.3167C141.027 21.744 140.911 22.2643 140.911 22.8775C140.911 23.4999 141.022 24.0248 141.245 24.4522C141.477 24.8795 141.784 25.2 142.165 25.4137C142.545 25.6181 142.964 25.7203 143.419 25.7203Z" fill="#131D35"/>
<path d="M152.721 18.9337C153.65 18.9337 154.403 19.2171 154.978 19.7838C155.554 20.3412 155.842 21.1495 155.842 22.2086V26.7097H154.588V22.3897C154.588 21.6279 154.398 21.0473 154.017 20.6478C153.636 20.239 153.116 20.0346 152.456 20.0346C151.788 20.0346 151.254 20.2437 150.854 20.6617C150.464 21.0798 150.269 21.6883 150.269 22.4873V26.7097H149.001V19.0731H150.269V20.16C150.52 19.7698 150.859 19.4679 151.286 19.2542C151.723 19.0406 152.201 18.9337 152.721 18.9337Z" fill="#131D35"/>
<path d="M163.175 20.1182V24.6194C163.175 24.991 163.254 25.2558 163.412 25.4137C163.569 25.5624 163.844 25.6367 164.234 25.6367H165.167V26.7097H164.025C163.319 26.7097 162.789 26.5471 162.436 26.222C162.083 25.8968 161.907 25.3626 161.907 24.6194V20.1182H160.918V19.0731H161.907V17.15H163.175V19.0731H165.167V20.1182H163.175Z" fill="#131D35"/>
<path d="M170.493 18.9337C171.069 18.9337 171.589 19.0591 172.054 19.31C172.518 19.5515 172.881 19.9185 173.141 20.4109C173.41 20.9033 173.545 21.5025 173.545 22.2086V26.7097H172.291V22.3897C172.291 21.6279 172.1 21.0473 171.719 20.6478C171.339 20.239 170.818 20.0346 170.159 20.0346C169.49 20.0346 168.956 20.2437 168.557 20.6617C168.166 21.0798 167.971 21.6883 167.971 22.4873V26.7097H166.703V16.3975H167.971V20.16C168.222 19.7698 168.566 19.4679 169.002 19.2542C169.448 19.0406 169.945 18.9337 170.493 18.9337Z" fill="#131D35"/>
<path d="M182.583 22.5988C182.583 22.8403 182.569 23.0958 182.541 23.3652H176.438C176.484 24.1177 176.74 24.7077 177.204 25.135C177.678 25.5531 178.249 25.7621 178.918 25.7621C179.466 25.7621 179.921 25.6367 180.284 25.3858C180.655 25.1257 180.915 24.782 181.064 24.3546H182.429C182.225 25.0886 181.816 25.6878 181.203 26.1523C180.59 26.6075 179.828 26.8351 178.918 26.8351C178.194 26.8351 177.543 26.6726 176.967 26.3474C176.401 26.0222 175.955 25.5624 175.63 24.9678C175.305 24.3639 175.142 23.6671 175.142 22.8775C175.142 22.0878 175.3 21.3957 175.616 20.8011C175.932 20.2065 176.373 19.7513 176.94 19.4354C177.515 19.1102 178.175 18.9477 178.918 18.9477C179.643 18.9477 180.284 19.1056 180.841 19.4215C181.398 19.7373 181.825 20.174 182.123 20.7314C182.429 21.2795 182.583 21.902 182.583 22.5988ZM181.273 22.334C181.273 21.8509 181.166 21.4375 180.952 21.0937C180.739 20.7407 180.446 20.4759 180.075 20.2994C179.712 20.1136 179.308 20.0207 178.862 20.0207C178.221 20.0207 177.673 20.2251 177.218 20.6338C176.772 21.0426 176.517 21.6093 176.452 22.334H181.273Z" fill="#131D35"/>
<path d="M76.0574 42.2239C75.7927 41.7362 75.4095 41.3669 74.9079 41.116C74.4202 40.8513 73.842 40.7189 73.1732 40.7189C72.0167 40.7189 71.0902 41.1021 70.3935 41.8685C69.6968 42.6211 69.3485 43.6314 69.3485 44.8995C69.3485 46.2513 69.7108 47.3104 70.4353 48.0768C71.1738 48.8293 72.1839 49.2056 73.4658 49.2056C74.3436 49.2056 75.0821 48.9826 75.6812 48.5367C76.2943 48.0907 76.7401 47.4497 77.0188 46.6136H72.4835V43.9798H80.2583V47.3034C79.9936 48.1953 79.5407 49.0244 78.8998 49.7909C78.2728 50.5573 77.4716 51.1774 76.4963 51.6513C75.521 52.1251 74.4202 52.362 73.1941 52.362C71.745 52.362 70.4492 52.0484 69.3067 51.4213C68.1781 50.7803 67.2933 49.8954 66.6524 48.7666C66.0254 47.6378 65.7119 46.3488 65.7119 44.8995C65.7119 43.4502 66.0254 42.1612 66.6524 41.0324C67.2933 39.8897 68.1781 39.0048 69.3067 38.3777C70.4353 37.7367 71.7241 37.4162 73.1732 37.4162C74.9288 37.4162 76.4057 37.8412 77.604 38.6913C78.8162 39.5413 79.6174 40.7189 80.0075 42.2239H76.0574Z" fill="#131D35"/>
<path d="M87.5465 52.4247C86.404 52.4247 85.3729 52.1808 84.4533 51.6931C83.5477 51.2053 82.8301 50.5085 82.3006 49.6027C81.7851 48.6969 81.5273 47.6378 81.5273 46.4254C81.5273 45.227 81.7921 44.1749 82.3215 43.2691C82.851 42.3493 83.5755 41.6456 84.4951 41.1578C85.4147 40.6701 86.4458 40.4262 87.5883 40.4262C88.7309 40.4262 89.7619 40.6701 90.6815 41.1578C91.6011 41.6456 92.3257 42.3493 92.8551 43.2691C93.3846 44.1749 93.6493 45.227 93.6493 46.4254C93.6493 47.6239 93.3776 48.683 92.8342 49.6027C92.3048 50.5085 91.5733 51.2053 90.6397 51.6931C89.7201 52.1808 88.6891 52.4247 87.5465 52.4247ZM87.5465 49.331C88.2293 49.331 88.8075 49.0802 89.2812 48.5785C89.7689 48.0768 90.0127 47.3591 90.0127 46.4254C90.0127 45.4918 89.7759 44.7741 89.3021 44.2724C88.8423 43.7707 88.2711 43.5199 87.5883 43.5199C86.8917 43.5199 86.3134 43.7707 85.8536 44.2724C85.3938 44.7602 85.1639 45.4778 85.1639 46.4254C85.1639 47.3591 85.3869 48.0768 85.8327 48.5785C86.2925 49.0802 86.8638 49.331 87.5465 49.331Z" fill="#131D35"/>
<path d="M100.854 52.4247C99.7114 52.4247 98.6804 52.1808 97.7608 51.6931C96.8551 51.2053 96.1375 50.5085 95.6081 49.6027C95.0925 48.6969 94.8348 47.6378 94.8348 46.4254C94.8348 45.227 95.0995 44.1749 95.629 43.2691C96.1584 42.3493 96.883 41.6456 97.8026 41.1578C98.7222 40.6701 99.7532 40.4262 100.896 40.4262C102.038 40.4262 103.069 40.6701 103.989 41.1578C104.909 41.6456 105.633 42.3493 106.163 43.2691C106.692 44.1749 106.957 45.227 106.957 46.4254C106.957 47.6239 106.685 48.683 106.142 49.6027C105.612 50.5085 104.881 51.2053 103.947 51.6931C103.028 52.1808 101.996 52.4247 100.854 52.4247ZM100.854 49.331C101.537 49.331 102.115 49.0802 102.589 48.5785C103.076 48.0768 103.32 47.3591 103.32 46.4254C103.32 45.4918 103.083 44.7741 102.61 44.2724C102.15 43.7707 101.578 43.5199 100.896 43.5199C100.199 43.5199 99.6209 43.7707 99.1611 44.2724C98.7013 44.7602 98.4714 45.4778 98.4714 46.4254C98.4714 47.3591 98.6943 48.0768 99.1402 48.5785C99.6 49.0802 100.171 49.331 100.854 49.331Z" fill="#131D35"/>
<path d="M113.284 40.4262C114.106 40.4262 114.823 40.5934 115.436 40.9279C116.063 41.2624 116.544 41.7013 116.878 42.2448V40.5934H120.452V52.2365C120.452 53.3096 120.236 54.2781 119.804 55.1421C119.386 56.02 118.738 56.7168 117.861 57.2324C116.997 57.748 115.917 58.0058 114.621 58.0058C112.893 58.0058 111.493 57.5947 110.42 56.7725C109.347 55.9643 108.734 54.8634 108.581 53.4698H112.113C112.225 53.9158 112.489 54.2642 112.907 54.515C113.325 54.7798 113.841 54.9122 114.454 54.9122C115.192 54.9122 115.778 54.6962 116.21 54.2642C116.655 53.8461 116.878 53.1702 116.878 52.2365V50.5852C116.53 51.1287 116.049 51.5746 115.436 51.923C114.823 52.2574 114.106 52.4247 113.284 52.4247C112.322 52.4247 111.451 52.1808 110.671 51.6931C109.891 51.1914 109.271 50.4876 108.811 49.5818C108.365 48.6621 108.142 47.603 108.142 46.4045C108.142 45.2061 108.365 44.154 108.811 43.2482C109.271 42.3424 109.891 41.6456 110.671 41.1578C111.451 40.6701 112.322 40.4262 113.284 40.4262ZM116.878 46.4254C116.878 45.5336 116.628 44.8298 116.126 44.3142C115.638 43.7986 115.039 43.5408 114.329 43.5408C113.618 43.5408 113.012 43.7986 112.51 44.3142C112.023 44.8159 111.779 45.5127 111.779 46.4045C111.779 47.2964 112.023 48.0071 112.51 48.5367C113.012 49.0523 113.618 49.3101 114.329 49.3101C115.039 49.3101 115.638 49.0523 116.126 48.5367C116.628 48.0211 116.878 47.3173 116.878 46.4254Z" fill="#131D35"/>
<path d="M126.612 36.7891V52.2574H123.038V36.7891H126.612Z" fill="#131D35"/>
<path d="M140.195 46.2373C140.195 46.5718 140.174 46.9202 140.132 47.2825H132.044C132.1 48.0071 132.33 48.5645 132.734 48.9547C133.152 49.331 133.66 49.5191 134.26 49.5191C135.151 49.5191 135.771 49.1429 136.12 48.3904H139.923C139.728 49.1568 139.373 49.8466 138.858 50.4598C138.356 51.0729 137.722 51.5537 136.956 51.9021C136.189 52.2505 135.332 52.4247 134.385 52.4247C133.242 52.4247 132.225 52.1808 131.334 51.6931C130.442 51.2053 129.745 50.5085 129.244 49.6027C128.742 48.6969 128.491 47.6378 128.491 46.4254C128.491 45.2131 128.735 44.154 129.223 43.2482C129.724 42.3424 130.421 41.6456 131.313 41.1578C132.204 40.6701 133.228 40.4262 134.385 40.4262C135.514 40.4262 136.517 40.6631 137.395 41.1369C138.272 41.6107 138.955 42.2866 139.443 43.1645C139.944 44.0425 140.195 45.0667 140.195 46.2373ZM136.538 45.2967C136.538 44.6835 136.329 44.1958 135.911 43.8334C135.493 43.4711 134.97 43.29 134.343 43.29C133.744 43.29 133.235 43.4642 132.817 43.8125C132.413 44.1609 132.163 44.6556 132.065 45.2967H136.538Z" fill="#131D35"/>
<path d="M157.691 42.3075C157.691 43.1576 157.496 43.938 157.106 44.6487C156.716 45.3454 156.117 45.9098 155.308 46.3418C154.5 46.7738 153.497 46.9898 152.299 46.9898H150.083V52.2574H146.51V37.5834H152.299C153.469 37.5834 154.458 37.7854 155.267 38.1896C156.075 38.5937 156.681 39.1511 157.085 39.8618C157.489 40.5725 157.691 41.3878 157.691 42.3075ZM152.027 44.147C152.71 44.147 153.218 43.9867 153.553 43.6662C153.887 43.3457 154.054 42.8928 154.054 42.3075C154.054 41.7222 153.887 41.2693 153.553 40.9488C153.218 40.6283 152.71 40.468 152.027 40.468H150.083V44.147H152.027Z" fill="#131D35"/>
<path d="M163.126 36.7891V52.2574H159.552V36.7891H163.126Z" fill="#131D35"/>
<path d="M165.005 46.4045C165.005 45.2061 165.228 44.154 165.674 43.2482C166.133 42.3424 166.754 41.6456 167.534 41.1578C168.314 40.6701 169.185 40.4262 170.146 40.4262C170.968 40.4262 171.686 40.5934 172.299 40.9279C172.926 41.2624 173.407 41.7013 173.741 42.2448V40.5934H177.315V52.2574H173.741V50.6061C173.393 51.1496 172.905 51.5885 172.278 51.923C171.665 52.2574 170.947 52.4247 170.125 52.4247C169.178 52.4247 168.314 52.1808 167.534 51.6931C166.754 51.1914 166.133 50.4876 165.674 49.5818C165.228 48.6621 165.005 47.603 165.005 46.4045ZM173.741 46.4254C173.741 45.5336 173.49 44.8298 172.989 44.3142C172.501 43.7986 171.902 43.5408 171.191 43.5408C170.481 43.5408 169.875 43.7986 169.373 44.3142C168.885 44.8159 168.641 45.5127 168.641 46.4045C168.641 47.2964 168.885 48.0071 169.373 48.5367C169.875 49.0523 170.481 49.3101 171.191 49.3101C171.902 49.3101 172.501 49.0523 172.989 48.5367C173.49 48.0211 173.741 47.3173 173.741 46.4254Z" fill="#131D35"/>
<path d="M191.814 40.5934L184.499 57.7968H180.653L183.328 51.8603L178.584 40.5934H182.576L185.272 47.8887L187.947 40.5934H191.814Z" fill="#131D35"/>
</svg>
