<svg width="80" height="80" viewBox="0 0 80 80" fill="none" xmlns="http://www.w3.org/2000/svg">
<g clip-path="url(#clip0)">
<path fill-rule="evenodd" clip-rule="evenodd" d="M39.9043 7.43678C40.2514 6.80459 40.6437 6.30223 41.0022 5.83938C41.9194 4.66249 42.5967 3.79041 41.2082 1.67371L41.1658 1.6088L41.1489 1.53542C41.0304 0.99919 40.9739 0.491182 40.9739 0.00292969H41.7924C41.798 0.38958 41.8545 0.795987 41.9561 1.28142C43.6212 3.85532 42.7886 4.92496 41.671 6.3615C41.3295 6.79895 40.957 7.27874 40.6437 7.84601L39.9043 7.43678Z" fill="#EC6303"/>
<path fill-rule="evenodd" clip-rule="evenodd" d="M18.0174 79.9995C17.4953 79.9995 17.0296 79.8866 16.6204 79.658C16.2083 79.4322 15.8866 79.1133 15.6551 78.7013C15.4209 78.292 15.3052 77.8292 15.3052 77.3155C15.3052 76.8019 15.4209 76.3419 15.6551 75.9326C15.8894 75.5262 16.2111 75.2073 16.6204 74.9815C17.0296 74.7557 17.4953 74.64 18.0174 74.64C18.4718 74.64 18.8782 74.7275 19.2338 74.9053C19.5922 75.0831 19.8744 75.34 20.0805 75.6815L19.5499 76.0427C19.3777 75.7831 19.1547 75.5883 18.8895 75.4557C18.6213 75.3258 18.3306 75.2609 18.0174 75.2609C17.6364 75.2609 17.2949 75.3456 16.9901 75.5149C16.6853 75.6843 16.4482 75.927 16.2789 76.2403C16.1095 76.5535 16.0249 76.912 16.0249 77.3127C16.0249 77.7191 16.1095 78.0776 16.2789 78.388C16.4482 78.6985 16.6853 78.9383 16.9901 79.1077C17.2949 79.277 17.6364 79.3617 18.0174 79.3617C18.3306 79.3617 18.6213 79.2968 18.8895 79.1726C19.1576 79.0456 19.3777 78.8509 19.5499 78.5912L20.0805 78.9525C19.8744 79.294 19.5894 79.5508 19.2281 79.7286C18.8697 79.912 18.4633 79.9995 18.0174 79.9995ZM24.3477 79.9995C23.8397 79.9995 23.3825 79.8838 22.9761 79.6552C22.5697 79.4238 22.248 79.1049 22.0137 78.6985C21.7795 78.292 21.6637 77.8292 21.6637 77.3155C21.6637 76.8019 21.7795 76.3419 22.0137 75.9326C22.248 75.5262 22.5669 75.2073 22.9761 74.9815C23.3825 74.7557 23.8397 74.64 24.3477 74.64C24.8557 74.64 25.3129 74.7529 25.7193 74.9815C26.1257 75.2073 26.4447 75.5262 26.6761 75.9326C26.9075 76.339 27.0204 76.8019 27.0204 77.3155C27.0204 77.8292 26.9047 78.2892 26.6761 78.6985C26.4447 79.1049 26.1257 79.4238 25.7193 79.6552C25.3129 79.8866 24.8557 79.9995 24.3477 79.9995ZM24.3477 79.3702C24.7203 79.3702 25.0561 79.2855 25.3553 79.1161C25.6544 78.9468 25.883 78.7041 26.0524 78.3908C26.2189 78.0776 26.3036 77.7191 26.3036 77.3184C26.3036 76.9176 26.2189 76.562 26.0524 76.2459C25.8859 75.9326 25.6544 75.6899 25.3553 75.5206C25.0589 75.3512 24.7231 75.2666 24.3477 75.2666C23.9752 75.2666 23.6393 75.3512 23.3402 75.5206C23.0438 75.6899 22.8096 75.9326 22.6403 76.2459C22.4709 76.5592 22.3862 76.9176 22.3862 77.3184C22.3862 77.7191 22.4709 78.0776 22.6403 78.3908C22.8096 78.7041 23.0438 78.9468 23.3402 79.1161C23.6365 79.2855 23.9752 79.3702 24.3477 79.3702ZM31.4711 79.9995C30.949 79.9995 30.4833 79.8866 30.0741 79.658C29.6621 79.4322 29.3403 79.1133 29.1089 78.7013C28.8746 78.292 28.7589 77.8292 28.7589 77.3155C28.7589 76.8019 28.8746 76.3419 29.1089 75.9326C29.3431 75.5262 29.6649 75.2073 30.0741 74.9815C30.4833 74.7557 30.949 74.64 31.4711 74.64C31.9255 74.64 32.3319 74.7275 32.6875 74.9053C33.0459 75.0831 33.3282 75.34 33.5342 75.6815L33.0036 76.0427C32.8315 75.7831 32.6085 75.5883 32.3432 75.4557C32.0751 75.3258 31.7844 75.2609 31.4711 75.2609C31.0901 75.2609 30.7486 75.3456 30.4438 75.5149C30.139 75.6843 29.9019 75.927 29.7326 76.2403C29.5633 76.5535 29.4786 76.912 29.4786 77.3127C29.4786 77.7191 29.5633 78.0776 29.7326 78.388C29.9019 78.6985 30.139 78.9383 30.4438 79.1077C30.7486 79.277 31.0901 79.3617 31.4711 79.3617C31.7844 79.3617 32.0751 79.2968 32.3432 79.1726C32.6113 79.0456 32.8315 78.8509 33.0036 78.5912L33.5342 78.9525C33.3282 79.294 33.0431 79.5508 32.6819 79.7286C32.3235 79.912 31.917 79.9995 31.4711 79.9995ZM37.6124 77.3071L36.3706 78.4501V79.9515H35.6594V72.5205H36.3706V77.5583L39.5146 74.6852H40.3951L38.143 76.8386L40.6068 79.9544H39.7347L37.6124 77.3071ZM45.2664 79.6298C45.1337 79.7512 44.9672 79.8415 44.7697 79.9064C44.5721 79.9713 44.3661 80.0023 44.1544 80.0023C43.6605 80.0023 43.2795 79.8697 43.0114 79.6016C42.7433 79.3335 42.6106 78.9581 42.6106 78.4699V75.2863H41.668V74.6852H42.6106V73.5337H43.3218V74.6852H44.9249V75.2863H43.3218V78.4303C43.3218 78.7436 43.4009 78.9835 43.5561 79.1472C43.7141 79.3109 43.9371 79.3927 44.2334 79.3927C44.3802 79.3927 44.5213 79.3702 44.6596 79.3222C44.7951 79.2742 44.9136 79.2093 45.0152 79.1218L45.2664 79.6298ZM49.2119 74.6429C49.9005 74.6429 50.4283 74.815 50.7952 75.1593C51.1621 75.5036 51.3455 76.0117 51.3455 76.6862V79.9515H50.6654V79.1303C50.5045 79.404 50.2703 79.6185 49.9598 79.7709C49.6494 79.9233 49.2796 80.0023 48.8535 80.0023C48.2664 80.0023 47.7979 79.8612 47.4508 79.5818C47.1037 79.3024 46.9287 78.9299 46.9287 78.4699C46.9287 78.0211 47.0896 77.6627 47.4141 77.3889C47.7387 77.1152 48.2523 76.9797 48.9607 76.9797H50.6343V76.658C50.6343 76.2036 50.5073 75.8593 50.2533 75.6222C49.9993 75.3851 49.6296 75.2666 49.1413 75.2666C48.8083 75.2666 48.4866 75.323 48.179 75.4331C47.8713 75.5432 47.6089 75.6956 47.3887 75.8875L47.067 75.3569C47.3351 75.1311 47.654 74.9533 48.0294 74.8319C48.4047 74.7049 48.7999 74.6429 49.2119 74.6429ZM48.9635 79.4407C49.3643 79.4407 49.7086 79.3476 49.9937 79.1641C50.2815 78.9807 50.4932 78.7154 50.6343 78.3682V77.5075H48.9833C48.083 77.5075 47.6314 77.8207 47.6314 78.4501C47.6314 78.7577 47.7471 79.0004 47.9814 79.1754C48.2156 79.3504 48.543 79.4407 48.9635 79.4407ZM54.0916 74.6824H54.8028V79.9487H54.0916V74.6824ZM54.4529 73.5309C54.3061 73.5309 54.1819 73.4801 54.0831 73.3813C53.9844 73.2825 53.9336 73.1612 53.9336 73.0201C53.9336 72.8874 53.9844 72.7689 54.0831 72.6701C54.1819 72.5713 54.3061 72.5205 54.4529 72.5205C54.5996 72.5205 54.7238 72.5685 54.8226 72.6644C54.9213 72.7604 54.9721 72.8761 54.9721 73.0088C54.9721 73.1555 54.9213 73.2797 54.8226 73.3785C54.7238 73.4801 54.5996 73.5309 54.4529 73.5309ZM57.5997 72.5205H58.3109V79.9515H57.5997V72.5205ZM62.5189 79.9995C62.0927 79.9995 61.6835 79.9374 61.2912 79.8132C60.9017 79.6891 60.5941 79.5338 60.374 79.3476L60.6957 78.7859C60.9158 78.9609 61.1924 79.102 61.5283 79.2121C61.8613 79.3222 62.2084 79.3786 62.5697 79.3786C63.0495 79.3786 63.4051 79.3024 63.6365 79.1528C63.8679 79.0033 63.9808 78.7916 63.9808 78.5178C63.9808 78.3231 63.9187 78.1735 63.7917 78.0634C63.6647 77.9534 63.5039 77.8687 63.312 77.8123C63.1172 77.7558 62.8604 77.6994 62.5415 77.6457C62.1153 77.5667 61.771 77.4849 61.5113 77.4002C61.2517 77.3155 61.0287 77.1744 60.8453 76.974C60.6618 76.7737 60.5687 76.4971 60.5687 76.1415C60.5687 75.7012 60.7522 75.34 61.119 75.0605C61.4859 74.7811 61.9968 74.64 62.6515 74.64C62.993 74.64 63.3317 74.6852 63.6732 74.7755C64.0147 74.8658 64.2941 74.9843 64.5142 75.1311L64.2038 75.7012C63.7692 75.402 63.2527 75.2496 62.6515 75.2496C62.1972 75.2496 61.8557 75.3287 61.6242 75.4895C61.3928 75.6504 61.2799 75.8593 61.2799 76.1217C61.2799 76.3221 61.3448 76.483 61.4747 76.6015C61.6045 76.7229 61.7653 76.8104 61.9601 76.8668C62.1548 76.9232 62.4201 76.9825 62.7616 77.0418C63.1821 77.1208 63.518 77.2026 63.772 77.2817C64.026 77.3607 64.2433 77.499 64.4239 77.6937C64.6045 77.8885 64.6949 78.1538 64.6949 78.4953C64.6949 78.9553 64.5029 79.3222 64.1191 79.5931C63.7325 79.8669 63.1991 79.9995 62.5189 79.9995Z" fill="white"/>
<path fill-rule="evenodd" clip-rule="evenodd" d="M15.3164 69.9412V56.4225H18.8612L21.9008 63.7124L24.9234 56.4225H28.629V69.9412H24.8613V61.0539L21.2149 69.9412H20.8537L17.2863 61.4462V69.9412H15.3164ZM33.3761 69.9412V60.9777H36.2943V69.9412H33.3761ZM33.314 57.9494C33.314 57.526 33.4636 57.162 33.7627 56.8628C34.0619 56.5636 34.4232 56.4141 34.8437 56.4141C35.2755 56.4141 35.6367 56.5636 35.9331 56.86C36.2294 57.1563 36.379 57.5176 36.379 57.9494C36.379 58.3784 36.2294 58.7368 35.9302 59.0331C35.6311 59.3295 35.267 59.479 34.8437 59.479C34.4232 59.479 34.0647 59.3295 33.7627 59.0303C33.4636 58.7283 33.314 58.3699 33.314 57.9494ZM39.6415 69.9412L42.444 65.9703L39.6641 60.9777H42.8787L44.1995 63.5657L45.859 60.9777H47.6568L44.9897 64.8272L47.86 69.9412H44.6539L43.2089 67.1923L41.4901 69.9412H39.6415ZM54.3117 69.9412H51.4132V56.4225H54.3117V69.9412ZM59.3776 69.9412V62.5102H62.2959V69.9412H59.3776ZM59.3776 62.5073H62.2959H64.6976V60.9748H56.9759V62.5073H59.3776Z" fill="#EC6303"/>
<path fill-rule="evenodd" clip-rule="evenodd" d="M47.5918 13.6462C48.2409 13.0874 48.7828 12.6189 49.2146 12.2407C49.6492 11.8597 50.0048 11.5408 50.2842 11.2868L50.3096 11.2614L50.3435 11.2388C50.6822 11.0243 51.0378 10.9001 51.4131 10.8663C51.7857 10.8324 52.1667 10.886 52.559 11.0299L52.5844 11.0384L52.6183 11.0582C53.6625 11.6396 54.6164 11.998 55.4772 12.1391C56.307 12.2746 57.052 12.2068 57.7068 11.9303C58.1047 11.7525 58.0991 11.7581 58.593 11.4307L58.8103 11.7863L59.0248 12.1532C58.6777 12.3846 58.3475 12.5681 58.0398 12.7036L58.0314 12.7092C57.227 13.045 56.3295 13.1325 55.3417 12.9717C54.3935 12.8164 53.3605 12.4298 52.2429 11.8117C51.9776 11.7186 51.7236 11.6819 51.4893 11.7016C51.2607 11.7214 51.0406 11.7976 50.8261 11.9274C50.5721 12.1617 50.2193 12.475 49.7678 12.8701C49.2993 13.2821 48.7546 13.7506 48.1393 14.2812L47.5918 13.6462Z" fill="#EC6303"/>
<path fill-rule="evenodd" clip-rule="evenodd" d="M58.4434 11.5403L61.7115 8.95508V10.0304L58.9655 12.2035L58.4434 11.5403Z" fill="#EC6303"/>
<path fill-rule="evenodd" clip-rule="evenodd" d="M45.7489 8.80859C43.6576 7.07007 41.2136 6.55924 40.2907 7.66839C39.3678 8.77754 40.3161 11.0862 42.4074 12.8247C44.4987 14.5632 46.9428 15.074 47.8656 13.9649C48.7885 12.8585 47.8402 10.5499 45.7489 8.80859Z" stroke="#EC6303" stroke-width="1.7804" stroke-miterlimit="22.9256"/>
<path fill-rule="evenodd" clip-rule="evenodd" d="M26.7861 32.0215C26.5095 32.2191 26.2865 32.49 25.025 32.7553C24.4351 32.7327 23.9328 32.9472 23.5151 33.3988C23.1623 33.8024 22.7897 34.0338 22.3946 34.0987C21.6891 34.189 21.1613 34.2229 20.8706 34.5079C21.3024 35.7384 21.881 36.8786 22.5668 37.9201C22.8236 38.3123 23.3316 38.9304 23.6195 39.2917C24.4521 40.3416 25.4314 41.2193 26.3994 41.9587C27.5312 42.8252 28.6742 43.5025 30.0035 44.0528C31.2086 44.5496 32.4729 44.8826 33.7345 45.035C34.1635 45.0858 34.6461 45.0999 35.0751 45.1084C35.5633 45.1197 36.108 45.035 36.5935 44.9898C37.68 44.8911 38.7977 44.4056 39.8278 44.0303C41.6566 43.3614 43.2455 42.0575 44.7639 40.6774C46.1158 39.4525 47.1883 38.0527 47.9757 36.54C48.3426 35.8344 48.7631 35.1401 48.907 34.3612C46.3839 34.1805 45.3876 34.2088 43.6294 31.9453L40.5926 32.1118L39.6951 32.1513L38.6086 32.1908L37.4571 32.2247L34.8719 32.2727L33.2237 32.2812L29.5971 32.1937L26.7861 32.0215Z" fill="url(#paint0_linear)"/>
<path d="M43.4912 4.07282C46.4066 3.84986 48.9805 5.80005 51.2129 9.92056" stroke="#EC6303" stroke-width="1.7762" stroke-miterlimit="22.9256"/>
<path fill-rule="evenodd" clip-rule="evenodd" d="M28.1071 20.6167C28.1918 20.6844 28.6292 20.7154 28.7844 20.5489C28.9707 20.3486 29.7468 20.3288 29.4674 19.6119C29.394 19.42 29.078 19.4991 29.1711 19.1688C29.3066 18.6778 28.4373 18.6383 28.1776 19.2112C27.8192 19.9929 27.4043 20.055 28.1071 20.6167Z" fill="url(#paint1_linear)"/>
<path fill-rule="evenodd" clip-rule="evenodd" d="M23.6561 23.7778C23.6166 23.7975 24.3871 24.8841 23.4896 24.918C21.5535 24.9885 22.5583 23.2528 23.6561 23.7778Z" fill="url(#paint2_linear)"/>
<path fill-rule="evenodd" clip-rule="evenodd" d="M21.4154 24.8698C21.3702 24.8698 21.2432 24.8557 21.3448 24.8811C21.5085 24.8952 21.9968 24.8613 22.0842 24.9601C22.5217 25.4512 22.1096 25.5669 21.9177 25.8435C21.565 26.3543 20.707 26.01 20.2808 25.7757C19.801 25.5104 20.0466 25.2113 20.1707 24.8924C20.4078 24.294 21.0174 24.8811 21.4154 24.8698Z" fill="url(#paint3_linear)"/>
<path d="M42.9546 28.7705C47.1993 28.9765 49.762 29.3321 49.762 29.716C49.762 30.3369 43.0986 30.8392 34.8773 30.8392C26.6561 30.8392 19.9927 30.3369 19.9927 29.716C19.9927 29.3462 22.1602 29.0132 26.2073 28.8016" stroke="#EC6303" stroke-width="1.7867" stroke-miterlimit="22.9256"/>
<path fill-rule="evenodd" clip-rule="evenodd" d="M31.3414 44.1517C32.2981 45.052 33.1758 46.1499 33.7036 48.0351C34.2031 49.8188 34.4825 51.8029 34.4854 55.1247H33.6415C33.6415 51.8932 33.3706 50.1095 32.888 48.3936C32.4054 46.672 31.22 44.9391 30.3677 44.1348L31.3414 44.1517Z" fill="#EC6303"/>
<path fill-rule="evenodd" clip-rule="evenodd" d="M39.0434 44.3491C38.1262 45.1309 37.4742 46.5505 36.9464 48.241C36.413 49.9485 36.1111 51.6814 36.1139 55.1245H35.27C35.27 51.6165 35.5833 49.7622 36.1365 47.9898C36.7207 46.1215 37.1609 45.1111 38.1939 44.2334L39.0434 44.3491Z" fill="#EC6303"/>
<path d="M20.1705 29.7129C19.6992 37.4967 27.3842 45.1225 35.0777 45.1084C42.2294 45.0943 50.1571 37.1411 49.604 29.9359" stroke="#EC6303" stroke-width="1.7717" stroke-miterlimit="22.9256"/>
<path fill-rule="evenodd" clip-rule="evenodd" d="M39.8167 27.4296C42.1338 26.6168 41.9955 25.279 42.1508 23.1652C41.6823 20.5433 42.3032 20.6957 42.7914 19.214C44.1913 17.3993 44.9674 15.6099 45.1141 13.8432C45.2863 13.4396 45.481 12.8046 45.7012 11.941C45.8507 11.179 45.9326 10.0614 45.8564 9.3304C45.7068 8.90706 45.323 8.53452 44.7106 8.20996C44.6626 8.79699 44.4227 9.97952 44.0784 11.0153C43.8498 12.0539 43.3276 13.163 42.512 14.3456C41.0331 16.0982 40.2316 18.737 40.1046 22.262C40.7481 25.5782 38.3209 23.2526 37.0537 26.9639C35.6962 26.8397 33.0715 24.9827 33.8646 23.5772C35.7442 21.9883 34.6576 21.6355 35.4309 19.8829C35.9333 19.372 36.1591 18.8132 36.1026 18.2036C36.2325 15.0342 34.7846 19.6345 34.6464 19.77C33.619 20.2102 33.1985 20.6392 33.3876 21.0569C33.4384 23.6365 31.539 21.4266 31.4572 21.3928C27.3423 21.4379 32.9615 22.8914 32.5776 25.3948C32.095 26.1652 31.9088 26.9837 32.0188 27.8558C31.8551 29.0722 31.0169 29.4701 29.4844 29.5971C29.5352 28.6319 29.411 28.5077 29.1345 28.6799C28.8551 29.6225 28.491 29.7043 28.1946 29.631C26.6452 22.3665 28.5644 31.5924 25.9199 27.9658C24.4918 23.6816 25.2115 27.201 24.7176 27.0994C23.9697 26.5095 23.4476 26.2753 23.1513 26.3995C22.694 26.6845 22.886 27.4437 24.1108 27.8417C24.187 27.8671 24.4439 27.9207 24.5003 27.9517C24.8164 28.0731 25.4147 28.3102 25.6264 28.598C25.7308 28.742 25.8465 28.8746 25.9227 29.0214C26.2219 29.6028 26.2106 29.7918 26.6819 29.8201C30.1872 30.0317 36.2296 30.2857 43.3192 29.7834C43.7595 29.7523 43.7087 27.1869 43.7453 26.7325C43.9485 25.756 44.5553 24.9263 45.5629 24.2433C46.0596 24.0259 46.339 23.7663 46.4011 23.4587C46.9204 22.9789 47.609 22.5866 48.4726 22.2846C49.8527 22.2592 49.7906 20.8086 50.9054 21.1924C51.5912 21.5508 52.2996 21.4859 53.0306 20.9977C53.5753 20.4191 53.1181 20.2328 51.659 20.4388C50.7163 19.7813 49.6157 19.9393 48.3569 20.9158C47.7558 21.3392 47.0559 21.5988 46.2572 21.7004C45.6842 21.7907 45.2637 22.2479 44.9984 23.072C39.6785 30.9377 39.3793 27.5848 39.8167 27.4296Z" fill="url(#paint4_linear)"/>
</g>
<defs>
<linearGradient id="paint0_linear" x1="34.8907" y1="45.1107" x2="34.8907" y2="31.9473" gradientUnits="userSpaceOnUse">
<stop stop-color="#EC6303"/>
<stop offset="1" stop-color="#F9B872"/>
</linearGradient>
<linearGradient id="paint1_linear" x1="28.6251" y1="20.6699" x2="28.6251" y2="18.7891" gradientUnits="userSpaceOnUse">
<stop stop-color="#EC6303"/>
<stop offset="1" stop-color="#F9B872"/>
</linearGradient>
<linearGradient id="paint2_linear" x1="23.1608" y1="24.9203" x2="23.1608" y2="23.6791" gradientUnits="userSpaceOnUse">
<stop stop-color="#EC6303"/>
<stop offset="1" stop-color="#F9B872"/>
</linearGradient>
<linearGradient id="paint3_linear" x1="21.1386" y1="26.1075" x2="21.1386" y2="24.6228" gradientUnits="userSpaceOnUse">
<stop stop-color="#EC6303"/>
<stop offset="1" stop-color="#F9B872"/>
</linearGradient>
<linearGradient id="paint4_linear" x1="38.089" y1="30.0841" x2="38.089" y2="8.21086" gradientUnits="userSpaceOnUse">
<stop stop-color="#EC6303"/>
<stop offset="1" stop-color="#F9B872"/>
</linearGradient>
<clipPath id="clip0">
<rect width="80" height="80" fill="white"/>
</clipPath>
</defs>
</svg>
