<svg width="180" height="62" viewBox="0 0 180 62" fill="none" xmlns="http://www.w3.org/2000/svg">
<rect width="180" height="62" rx="16" fill="white"/>
<path d="M32.7866 31.002L20.8826 42.6075C20.3252 42.2217 19.9942 41.5802 20.0001 40.8966V21.1073C19.9942 20.4238 20.3252 19.7822 20.8826 19.3965L32.7866 31.002Z" fill="#2196F3"/>
<path d="M36.9519 26.9484L32.7866 31.0021L20.8826 19.3966C20.9274 19.3614 20.9741 19.3287 21.0225 19.2986C21.6516 18.9125 22.4375 18.9 23.0782 19.2659L36.9519 26.9484Z" fill="#4CAF50"/>
<path d="M41.9998 31.002C42.0076 31.7737 41.5934 32.4864 40.9235 32.8545L36.952 35.0557L32.7866 31.002L36.952 26.9482L40.9235 29.1495C41.5934 29.5175 42.0076 30.2303 41.9998 31.002Z" fill="#FFC107"/>
<path d="M36.9519 35.0557L23.0782 42.7382C22.436 43.0984 21.6532 43.0859 21.0225 42.7055C20.9741 42.6754 20.9274 42.6426 20.8826 42.6074L32.7866 31.002L36.9519 35.0557Z" fill="#F44336"/>
<path d="M59.528 14.636C60.44 14.636 61.228 14.808 61.892 15.152C62.564 15.488 63.076 15.972 63.428 16.604C63.788 17.236 63.968 17.98 63.968 18.836C63.968 19.692 63.788 20.436 63.428 21.068C63.076 21.692 62.564 22.172 61.892 22.508C61.228 22.836 60.44 23 59.528 23H56.924V14.636H59.528ZM59.528 22.1C60.608 22.1 61.432 21.816 62 21.248C62.568 20.672 62.852 19.868 62.852 18.836C62.852 17.796 62.564 16.984 61.988 16.4C61.42 15.816 60.6 15.524 59.528 15.524H58.016V22.1H59.528ZM68.2764 23.108C67.6604 23.108 67.1004 22.968 66.5964 22.688C66.1004 22.408 65.7084 22.012 65.4204 21.5C65.1404 20.98 65.0004 20.38 65.0004 19.7C65.0004 19.028 65.1444 18.436 65.4324 17.924C65.7284 17.404 66.1284 17.008 66.6324 16.736C67.1364 16.456 67.7004 16.316 68.3244 16.316C68.9484 16.316 69.5124 16.456 70.0164 16.736C70.5204 17.008 70.9164 17.4 71.2044 17.912C71.5004 18.424 71.6484 19.02 71.6484 19.7C71.6484 20.38 71.4964 20.98 71.1924 21.5C70.8964 22.012 70.4924 22.408 69.9804 22.688C69.4684 22.968 68.9004 23.108 68.2764 23.108ZM68.2764 22.148C68.6684 22.148 69.0364 22.056 69.3804 21.872C69.7244 21.688 70.0004 21.412 70.2084 21.044C70.4244 20.676 70.5324 20.228 70.5324 19.7C70.5324 19.172 70.4284 18.724 70.2204 18.356C70.0124 17.988 69.7404 17.716 69.4044 17.54C69.0684 17.356 68.7044 17.264 68.3124 17.264C67.9124 17.264 67.5444 17.356 67.2084 17.54C66.8804 17.716 66.6164 17.988 66.4164 18.356C66.2164 18.724 66.1164 19.172 66.1164 19.7C66.1164 20.236 66.2124 20.688 66.4044 21.056C66.6044 21.424 66.8684 21.7 67.1964 21.884C67.5244 22.06 67.8844 22.148 68.2764 22.148ZM81.8442 16.424L79.7922 23H78.6642L77.0802 17.78L75.4962 23H74.3682L72.3042 16.424H73.4202L74.9322 21.944L76.5642 16.424H77.6802L79.2762 21.956L80.7642 16.424H81.8442ZM86.1319 16.304C86.9319 16.304 87.5799 16.548 88.0759 17.036C88.5719 17.516 88.8199 18.212 88.8199 19.124V23H87.7399V19.28C87.7399 18.624 87.5759 18.124 87.2479 17.78C86.9199 17.428 86.4719 17.252 85.9039 17.252C85.3279 17.252 84.8679 17.432 84.5239 17.792C84.1879 18.152 84.0199 18.676 84.0199 19.364V23H82.9279V16.424H84.0199V17.36C84.2359 17.024 84.5279 16.764 84.8959 16.58C85.2719 16.396 85.6839 16.304 86.1319 16.304ZM91.6957 14.12V23H90.6037V14.12H91.6957ZM96.4248 23.108C95.8088 23.108 95.2488 22.968 94.7448 22.688C94.2488 22.408 93.8568 22.012 93.5688 21.5C93.2888 20.98 93.1488 20.38 93.1488 19.7C93.1488 19.028 93.2928 18.436 93.5808 17.924C93.8768 17.404 94.2768 17.008 94.7808 16.736C95.2848 16.456 95.8488 16.316 96.4728 16.316C97.0968 16.316 97.6608 16.456 98.1648 16.736C98.6688 17.008 99.0648 17.4 99.3528 17.912C99.6488 18.424 99.7968 19.02 99.7968 19.7C99.7968 20.38 99.6448 20.98 99.3408 21.5C99.0448 22.012 98.6408 22.408 98.1288 22.688C97.6168 22.968 97.0488 23.108 96.4248 23.108ZM96.4248 22.148C96.8168 22.148 97.1848 22.056 97.5288 21.872C97.8728 21.688 98.1488 21.412 98.3568 21.044C98.5728 20.676 98.6808 20.228 98.6808 19.7C98.6808 19.172 98.5768 18.724 98.3688 18.356C98.1608 17.988 97.8888 17.716 97.5528 17.54C97.2168 17.356 96.8528 17.264 96.4608 17.264C96.0608 17.264 95.6928 17.356 95.3568 17.54C95.0288 17.716 94.7648 17.988 94.5648 18.356C94.3648 18.724 94.2648 19.172 94.2648 19.7C94.2648 20.236 94.3608 20.688 94.5528 21.056C94.7528 21.424 95.0168 21.7 95.3448 21.884C95.6728 22.06 96.0328 22.148 96.4248 22.148ZM100.825 19.688C100.825 19.016 100.961 18.428 101.233 17.924C101.505 17.412 101.877 17.016 102.349 16.736C102.829 16.456 103.361 16.316 103.945 16.316C104.521 16.316 105.021 16.44 105.445 16.688C105.869 16.936 106.185 17.248 106.393 17.624V16.424H107.497V23H106.393V21.776C106.177 22.16 105.853 22.48 105.421 22.736C104.997 22.984 104.501 23.108 103.933 23.108C103.349 23.108 102.821 22.964 102.349 22.676C101.877 22.388 101.505 21.984 101.233 21.464C100.961 20.944 100.825 20.352 100.825 19.688ZM106.393 19.7C106.393 19.204 106.293 18.772 106.093 18.404C105.893 18.036 105.621 17.756 105.277 17.564C104.941 17.364 104.569 17.264 104.161 17.264C103.753 17.264 103.381 17.36 103.045 17.552C102.709 17.744 102.441 18.024 102.241 18.392C102.041 18.76 101.941 19.192 101.941 19.688C101.941 20.192 102.041 20.632 102.241 21.008C102.441 21.376 102.709 21.66 103.045 21.86C103.381 22.052 103.753 22.148 104.161 22.148C104.569 22.148 104.941 22.052 105.277 21.86C105.621 21.66 105.893 21.376 106.093 21.008C106.293 20.632 106.393 20.196 106.393 19.7ZM108.934 19.688C108.934 19.016 109.07 18.428 109.342 17.924C109.614 17.412 109.986 17.016 110.458 16.736C110.938 16.456 111.474 16.316 112.066 16.316C112.578 16.316 113.054 16.436 113.494 16.676C113.934 16.908 114.27 17.216 114.502 17.6V14.12H115.606V23H114.502V21.764C114.286 22.156 113.966 22.48 113.542 22.736C113.118 22.984 112.622 23.108 112.054 23.108C111.47 23.108 110.938 22.964 110.458 22.676C109.986 22.388 109.614 21.984 109.342 21.464C109.07 20.944 108.934 20.352 108.934 19.688ZM114.502 19.7C114.502 19.204 114.402 18.772 114.202 18.404C114.002 18.036 113.73 17.756 113.386 17.564C113.05 17.364 112.678 17.264 112.27 17.264C111.862 17.264 111.49 17.36 111.154 17.552C110.818 17.744 110.55 18.024 110.35 18.392C110.15 18.76 110.05 19.192 110.05 19.688C110.05 20.192 110.15 20.632 110.35 21.008C110.55 21.376 110.818 21.66 111.154 21.86C111.49 22.052 111.862 22.148 112.27 22.148C112.678 22.148 113.05 22.052 113.386 21.86C113.73 21.66 114.002 21.376 114.202 21.008C114.402 20.632 114.502 20.196 114.502 19.7ZM123.519 23.108C122.903 23.108 122.343 22.968 121.839 22.688C121.343 22.408 120.951 22.012 120.663 21.5C120.383 20.98 120.243 20.38 120.243 19.7C120.243 19.028 120.387 18.436 120.675 17.924C120.971 17.404 121.371 17.008 121.875 16.736C122.379 16.456 122.943 16.316 123.567 16.316C124.191 16.316 124.755 16.456 125.259 16.736C125.763 17.008 126.159 17.4 126.447 17.912C126.743 18.424 126.891 19.02 126.891 19.7C126.891 20.38 126.739 20.98 126.435 21.5C126.139 22.012 125.735 22.408 125.223 22.688C124.711 22.968 124.143 23.108 123.519 23.108ZM123.519 22.148C123.911 22.148 124.279 22.056 124.623 21.872C124.967 21.688 125.243 21.412 125.451 21.044C125.667 20.676 125.775 20.228 125.775 19.7C125.775 19.172 125.671 18.724 125.463 18.356C125.255 17.988 124.983 17.716 124.647 17.54C124.311 17.356 123.947 17.264 123.555 17.264C123.155 17.264 122.787 17.356 122.451 17.54C122.123 17.716 121.859 17.988 121.659 18.356C121.459 18.724 121.359 19.172 121.359 19.7C121.359 20.236 121.455 20.688 121.647 21.056C121.847 21.424 122.111 21.7 122.439 21.884C122.767 22.06 123.127 22.148 123.519 22.148ZM131.53 16.304C132.33 16.304 132.978 16.548 133.474 17.036C133.97 17.516 134.218 18.212 134.218 19.124V23H133.138V19.28C133.138 18.624 132.974 18.124 132.646 17.78C132.318 17.428 131.87 17.252 131.302 17.252C130.726 17.252 130.266 17.432 129.922 17.792C129.586 18.152 129.418 18.676 129.418 19.364V23H128.326V16.424H129.418V17.36C129.634 17.024 129.926 16.764 130.294 16.58C130.67 16.396 131.082 16.304 131.53 16.304ZM140.533 17.324V21.2C140.533 21.52 140.601 21.748 140.737 21.884C140.873 22.012 141.109 22.076 141.445 22.076H142.249V23H141.265C140.657 23 140.201 22.86 139.897 22.58C139.593 22.3 139.441 21.84 139.441 21.2V17.324H138.589V16.424H139.441V14.768H140.533V16.424H142.249V17.324H140.533ZM146.836 16.304C147.332 16.304 147.78 16.412 148.18 16.628C148.58 16.836 148.892 17.152 149.116 17.576C149.348 18 149.464 18.516 149.464 19.124V23H148.384V19.28C148.384 18.624 148.22 18.124 147.892 17.78C147.564 17.428 147.116 17.252 146.548 17.252C145.972 17.252 145.512 17.432 145.168 17.792C144.832 18.152 144.664 18.676 144.664 19.364V23H143.572V14.12H144.664V17.36C144.88 17.024 145.176 16.764 145.552 16.58C145.936 16.396 146.364 16.304 146.836 16.304ZM157.248 19.46C157.248 19.668 157.236 19.888 157.212 20.12H151.956C151.996 20.768 152.216 21.276 152.616 21.644C153.024 22.004 153.516 22.184 154.092 22.184C154.564 22.184 154.956 22.076 155.268 21.86C155.588 21.636 155.812 21.34 155.94 20.972H157.116C156.94 21.604 156.588 22.12 156.06 22.52C155.532 22.912 154.876 23.108 154.092 23.108C153.468 23.108 152.908 22.968 152.412 22.688C151.924 22.408 151.54 22.012 151.26 21.5C150.98 20.98 150.84 20.38 150.84 19.7C150.84 19.02 150.976 18.424 151.248 17.912C151.52 17.4 151.9 17.008 152.388 16.736C152.884 16.456 153.452 16.316 154.092 16.316C154.716 16.316 155.268 16.452 155.748 16.724C156.228 16.996 156.596 17.372 156.852 17.852C157.116 18.324 157.248 18.86 157.248 19.46ZM156.12 19.232C156.12 18.816 156.028 18.46 155.844 18.164C155.66 17.86 155.408 17.632 155.088 17.48C154.776 17.32 154.428 17.24 154.044 17.24C153.492 17.24 153.02 17.416 152.628 17.768C152.244 18.12 152.024 18.608 151.968 19.232H156.12Z" fill="#131D35"/>
<path d="M65.504 36.36C65.276 35.94 64.946 35.622 64.514 35.406C64.094 35.178 63.596 35.064 63.02 35.064C62.024 35.064 61.226 35.394 60.626 36.054C60.026 36.702 59.726 37.572 59.726 38.664C59.726 39.828 60.038 40.74 60.662 41.4C61.298 42.048 62.168 42.372 63.272 42.372C64.028 42.372 64.664 42.18 65.18 41.796C65.708 41.412 66.092 40.86 66.332 40.14H62.426V37.872H69.122V40.734C68.894 41.502 68.504 42.216 67.952 42.876C67.412 43.536 66.722 44.07 65.882 44.478C65.042 44.886 64.094 45.09 63.038 45.09C61.79 45.09 60.674 44.82 59.69 44.28C58.718 43.728 57.956 42.966 57.404 41.994C56.864 41.022 56.594 39.912 56.594 38.664C56.594 37.416 56.864 36.306 57.404 35.334C57.956 34.35 58.718 33.588 59.69 33.048C60.662 32.496 61.772 32.22 63.02 32.22C64.532 32.22 65.804 32.586 66.836 33.318C67.88 34.05 68.57 35.064 68.906 36.36H65.504ZM75.3989 45.144C74.4149 45.144 73.5269 44.934 72.7349 44.514C71.9549 44.094 71.3369 43.494 70.8809 42.714C70.4369 41.934 70.2149 41.022 70.2149 39.978C70.2149 38.946 70.4429 38.04 70.8989 37.26C71.3549 36.468 71.9789 35.862 72.7709 35.442C73.5629 35.022 74.4509 34.812 75.4349 34.812C76.4189 34.812 77.3069 35.022 78.0989 35.442C78.8909 35.862 79.5149 36.468 79.9709 37.26C80.4269 38.04 80.6549 38.946 80.6549 39.978C80.6549 41.01 80.4209 41.922 79.9529 42.714C79.4969 43.494 78.8669 44.094 78.0629 44.514C77.2709 44.934 76.3829 45.144 75.3989 45.144ZM75.3989 42.48C75.9869 42.48 76.4849 42.264 76.8929 41.832C77.3129 41.4 77.5229 40.782 77.5229 39.978C77.5229 39.174 77.3189 38.556 76.9109 38.124C76.5149 37.692 76.0229 37.476 75.4349 37.476C74.8349 37.476 74.3369 37.692 73.9409 38.124C73.5449 38.544 73.3469 39.162 73.3469 39.978C73.3469 40.782 73.5389 41.4 73.9229 41.832C74.3189 42.264 74.8109 42.48 75.3989 42.48ZM86.8599 45.144C85.8759 45.144 84.9879 44.934 84.1959 44.514C83.4159 44.094 82.7979 43.494 82.3419 42.714C81.8979 41.934 81.6759 41.022 81.6759 39.978C81.6759 38.946 81.9039 38.04 82.3599 37.26C82.8159 36.468 83.4399 35.862 84.2319 35.442C85.0239 35.022 85.9119 34.812 86.8959 34.812C87.8799 34.812 88.7679 35.022 89.5599 35.442C90.3519 35.862 90.9759 36.468 91.4319 37.26C91.8879 38.04 92.1159 38.946 92.1159 39.978C92.1159 41.01 91.8819 41.922 91.4139 42.714C90.9579 43.494 90.3279 44.094 89.5239 44.514C88.7319 44.934 87.8439 45.144 86.8599 45.144ZM86.8599 42.48C87.4479 42.48 87.9459 42.264 88.3539 41.832C88.7739 41.4 88.9839 40.782 88.9839 39.978C88.9839 39.174 88.7799 38.556 88.3719 38.124C87.9759 37.692 87.4839 37.476 86.8959 37.476C86.2959 37.476 85.7979 37.692 85.4019 38.124C85.0059 38.544 84.8079 39.162 84.8079 39.978C84.8079 40.782 84.9999 41.4 85.3839 41.832C85.7799 42.264 86.2719 42.48 86.8599 42.48ZM97.5648 34.812C98.2728 34.812 98.8908 34.956 99.4188 35.244C99.9588 35.532 100.373 35.91 100.661 36.378V34.956H103.739V44.982C103.739 45.906 103.553 46.74 103.181 47.484C102.821 48.24 102.263 48.84 101.507 49.284C100.763 49.728 99.8328 49.95 98.7168 49.95C97.2288 49.95 96.0228 49.596 95.0988 48.888C94.1748 48.192 93.6468 47.244 93.5148 46.044H96.5568C96.6528 46.428 96.8808 46.728 97.2408 46.944C97.6008 47.172 98.0448 47.286 98.5728 47.286C99.2088 47.286 99.7128 47.1 100.085 46.728C100.469 46.368 100.661 45.786 100.661 44.982V43.56C100.361 44.028 99.9468 44.412 99.4188 44.712C98.8908 45 98.2728 45.144 97.5648 45.144C96.7368 45.144 95.9868 44.934 95.3148 44.514C94.6428 44.082 94.1088 43.476 93.7128 42.696C93.3288 41.904 93.1368 40.992 93.1368 39.96C93.1368 38.928 93.3288 38.022 93.7128 37.242C94.1088 36.462 94.6428 35.862 95.3148 35.442C95.9868 35.022 96.7368 34.812 97.5648 34.812ZM100.661 39.978C100.661 39.21 100.445 38.604 100.013 38.16C99.5928 37.716 99.0768 37.494 98.4648 37.494C97.8528 37.494 97.3308 37.716 96.8988 38.16C96.4788 38.592 96.2688 39.192 96.2688 39.96C96.2688 40.728 96.4788 41.34 96.8988 41.796C97.3308 42.24 97.8528 42.462 98.4648 42.462C99.0768 42.462 99.5928 42.24 100.013 41.796C100.445 41.352 100.661 40.746 100.661 39.978ZM109.044 31.68V45H105.966V31.68H109.044ZM120.742 39.816C120.742 40.104 120.724 40.404 120.688 40.716H113.722C113.77 41.34 113.968 41.82 114.316 42.156C114.676 42.48 115.114 42.642 115.63 42.642C116.398 42.642 116.932 42.318 117.232 41.67H120.508C120.34 42.33 120.034 42.924 119.59 43.452C119.158 43.98 118.612 44.394 117.952 44.694C117.292 44.994 116.554 45.144 115.738 45.144C114.754 45.144 113.878 44.934 113.11 44.514C112.342 44.094 111.742 43.494 111.31 42.714C110.878 41.934 110.662 41.022 110.662 39.978C110.662 38.934 110.872 38.022 111.292 37.242C111.724 36.462 112.324 35.862 113.092 35.442C113.86 35.022 114.742 34.812 115.738 34.812C116.71 34.812 117.574 35.016 118.33 35.424C119.086 35.832 119.674 36.414 120.094 37.17C120.526 37.926 120.742 38.808 120.742 39.816ZM117.592 39.006C117.592 38.478 117.412 38.058 117.052 37.746C116.692 37.434 116.242 37.278 115.702 37.278C115.186 37.278 114.748 37.428 114.388 37.728C114.04 38.028 113.824 38.454 113.74 39.006H117.592ZM135.81 36.432C135.81 37.164 135.642 37.836 135.306 38.448C134.97 39.048 134.454 39.534 133.758 39.906C133.062 40.278 132.198 40.464 131.166 40.464H129.258V45H126.18V32.364H131.166C132.174 32.364 133.026 32.538 133.722 32.886C134.418 33.234 134.94 33.714 135.288 34.326C135.636 34.938 135.81 35.64 135.81 36.432ZM130.932 38.016C131.52 38.016 131.958 37.878 132.246 37.602C132.534 37.326 132.678 36.936 132.678 36.432C132.678 35.928 132.534 35.538 132.246 35.262C131.958 34.986 131.52 34.848 130.932 34.848H129.258V38.016H130.932ZM140.491 31.68V45H137.413V31.68H140.491ZM142.109 39.96C142.109 38.928 142.301 38.022 142.685 37.242C143.081 36.462 143.615 35.862 144.287 35.442C144.959 35.022 145.709 34.812 146.537 34.812C147.245 34.812 147.863 34.956 148.391 35.244C148.931 35.532 149.345 35.91 149.633 36.378V34.956H152.711V45H149.633V43.578C149.333 44.046 148.913 44.424 148.373 44.712C147.845 45 147.227 45.144 146.519 45.144C145.703 45.144 144.959 44.934 144.287 44.514C143.615 44.082 143.081 43.476 142.685 42.696C142.301 41.904 142.109 40.992 142.109 39.96ZM149.633 39.978C149.633 39.21 149.417 38.604 148.985 38.16C148.565 37.716 148.049 37.494 147.437 37.494C146.825 37.494 146.303 37.716 145.871 38.16C145.451 38.592 145.241 39.192 145.241 39.96C145.241 40.728 145.451 41.34 145.871 41.796C146.303 42.24 146.825 42.462 147.437 42.462C148.049 42.462 148.565 42.24 148.985 41.796C149.417 41.352 149.633 40.746 149.633 39.978ZM165.198 34.956L158.898 49.77H155.586L157.89 44.658L153.804 34.956H157.242L159.564 41.238L161.868 34.956H165.198Z" fill="#131D35"/>
</svg>
