<svg width="634" height="1161" viewBox="0 0 634 1161" fill="none" xmlns="http://www.w3.org/2000/svg">
<path opacity="0.24" fill-rule="evenodd" clip-rule="evenodd" d="M53.5 803.419C176.615 803.419 276.419 703.615 276.419 580.5C276.419 457.385 176.615 357.581 53.5 357.581C-69.6146 357.581 -169.419 457.385 -169.419 580.5C-169.419 703.615 -69.6146 803.419 53.5 803.419ZM53.5 857C206.207 857 330 733.207 330 580.5C330 427.793 206.207 304 53.5 304C-99.2067 304 -223 427.793 -223 580.5C-223 733.207 -99.2067 857 53.5 857Z" fill="#E7E7E7"/>
<path opacity="0.4" d="M53.5 1049.01C312.25 1049.01 522.008 839.25 522.008 580.5C522.008 321.75 312.25 111.992 53.5 111.992C-205.25 111.992 -415.008 321.75 -415.008 580.5C-415.008 839.25 -205.25 1049.01 53.5 1049.01ZM633.5 580.5C633.5 900.825 373.825 1160.5 53.5 1160.5C-266.825 1160.5 -526.5 900.825 -526.5 580.5C-526.5 260.175 -266.825 0.5 53.5 0.5C373.825 0.5 633.5 260.175 633.5 580.5Z" stroke="#AAAAAA"/>
</svg>
