<svg width="180" height="62" viewBox="0 0 180 62" fill="none" xmlns="http://www.w3.org/2000/svg">
<rect width="180" height="62" rx="16" fill="url(#paint0_linear)"/>
<path d="M34.3894 17C33.1411 17.0885 31.6821 17.9075 30.8318 18.974C30.0562 19.9415 29.4181 21.3785 29.6669 22.775C31.0308 22.8185 32.4401 21.98 33.2567 20.8955C34.0206 19.886 34.5986 18.458 34.3894 17Z" fill="white"/>
<path d="M39.3224 25.0517C38.1239 23.5112 36.4395 22.6172 34.8488 22.6172C32.7488 22.6172 31.8605 23.6477 30.4014 23.6477C28.897 23.6477 27.7541 22.6202 25.938 22.6202C24.1541 22.6202 22.2546 23.7377 21.0502 25.6487C19.357 28.3396 19.6468 33.3991 22.3907 37.7086C23.3726 39.2506 24.6839 40.9846 26.399 40.9996C27.9253 41.0146 28.3556 39.9961 30.4234 39.9856C32.4912 39.9736 32.8834 41.0131 34.4068 40.9966C36.1234 40.9831 37.5063 39.0616 38.4883 37.5196C39.1922 36.4141 39.4541 35.8576 40 34.6096C36.0297 33.0601 35.3932 27.2732 39.3224 25.0517Z" fill="white"/>
<path d="M59.528 14.636C60.44 14.636 61.228 14.808 61.892 15.152C62.564 15.488 63.076 15.972 63.428 16.604C63.788 17.236 63.968 17.98 63.968 18.836C63.968 19.692 63.788 20.436 63.428 21.068C63.076 21.692 62.564 22.172 61.892 22.508C61.228 22.836 60.44 23 59.528 23H56.924V14.636H59.528ZM59.528 22.1C60.608 22.1 61.432 21.816 62 21.248C62.568 20.672 62.852 19.868 62.852 18.836C62.852 17.796 62.564 16.984 61.988 16.4C61.42 15.816 60.6 15.524 59.528 15.524H58.016V22.1H59.528ZM68.2764 23.108C67.6604 23.108 67.1004 22.968 66.5964 22.688C66.1004 22.408 65.7084 22.012 65.4204 21.5C65.1404 20.98 65.0004 20.38 65.0004 19.7C65.0004 19.028 65.1444 18.436 65.4324 17.924C65.7284 17.404 66.1284 17.008 66.6324 16.736C67.1364 16.456 67.7004 16.316 68.3244 16.316C68.9484 16.316 69.5124 16.456 70.0164 16.736C70.5204 17.008 70.9164 17.4 71.2044 17.912C71.5004 18.424 71.6484 19.02 71.6484 19.7C71.6484 20.38 71.4964 20.98 71.1924 21.5C70.8964 22.012 70.4924 22.408 69.9804 22.688C69.4684 22.968 68.9004 23.108 68.2764 23.108ZM68.2764 22.148C68.6684 22.148 69.0364 22.056 69.3804 21.872C69.7244 21.688 70.0004 21.412 70.2084 21.044C70.4244 20.676 70.5324 20.228 70.5324 19.7C70.5324 19.172 70.4284 18.724 70.2204 18.356C70.0124 17.988 69.7404 17.716 69.4044 17.54C69.0684 17.356 68.7044 17.264 68.3124 17.264C67.9124 17.264 67.5444 17.356 67.2084 17.54C66.8804 17.716 66.6164 17.988 66.4164 18.356C66.2164 18.724 66.1164 19.172 66.1164 19.7C66.1164 20.236 66.2124 20.688 66.4044 21.056C66.6044 21.424 66.8684 21.7 67.1964 21.884C67.5244 22.06 67.8844 22.148 68.2764 22.148ZM81.8442 16.424L79.7922 23H78.6642L77.0802 17.78L75.4962 23H74.3682L72.3042 16.424H73.4202L74.9322 21.944L76.5642 16.424H77.6802L79.2762 21.956L80.7642 16.424H81.8442ZM86.1319 16.304C86.9319 16.304 87.5799 16.548 88.0759 17.036C88.5719 17.516 88.8199 18.212 88.8199 19.124V23H87.7399V19.28C87.7399 18.624 87.5759 18.124 87.2479 17.78C86.9199 17.428 86.4719 17.252 85.9039 17.252C85.3279 17.252 84.8679 17.432 84.5239 17.792C84.1879 18.152 84.0199 18.676 84.0199 19.364V23H82.9279V16.424H84.0199V17.36C84.2359 17.024 84.5279 16.764 84.8959 16.58C85.2719 16.396 85.6839 16.304 86.1319 16.304ZM91.6957 14.12V23H90.6037V14.12H91.6957ZM96.4248 23.108C95.8088 23.108 95.2488 22.968 94.7448 22.688C94.2488 22.408 93.8568 22.012 93.5688 21.5C93.2888 20.98 93.1488 20.38 93.1488 19.7C93.1488 19.028 93.2928 18.436 93.5808 17.924C93.8768 17.404 94.2768 17.008 94.7808 16.736C95.2848 16.456 95.8488 16.316 96.4728 16.316C97.0968 16.316 97.6608 16.456 98.1648 16.736C98.6688 17.008 99.0648 17.4 99.3528 17.912C99.6488 18.424 99.7968 19.02 99.7968 19.7C99.7968 20.38 99.6448 20.98 99.3408 21.5C99.0448 22.012 98.6408 22.408 98.1288 22.688C97.6168 22.968 97.0488 23.108 96.4248 23.108ZM96.4248 22.148C96.8168 22.148 97.1848 22.056 97.5288 21.872C97.8728 21.688 98.1488 21.412 98.3568 21.044C98.5728 20.676 98.6808 20.228 98.6808 19.7C98.6808 19.172 98.5768 18.724 98.3688 18.356C98.1608 17.988 97.8888 17.716 97.5528 17.54C97.2168 17.356 96.8528 17.264 96.4608 17.264C96.0608 17.264 95.6928 17.356 95.3568 17.54C95.0288 17.716 94.7648 17.988 94.5648 18.356C94.3648 18.724 94.2648 19.172 94.2648 19.7C94.2648 20.236 94.3608 20.688 94.5528 21.056C94.7528 21.424 95.0168 21.7 95.3448 21.884C95.6728 22.06 96.0328 22.148 96.4248 22.148ZM100.825 19.688C100.825 19.016 100.961 18.428 101.233 17.924C101.505 17.412 101.877 17.016 102.349 16.736C102.829 16.456 103.361 16.316 103.945 16.316C104.521 16.316 105.021 16.44 105.445 16.688C105.869 16.936 106.185 17.248 106.393 17.624V16.424H107.497V23H106.393V21.776C106.177 22.16 105.853 22.48 105.421 22.736C104.997 22.984 104.501 23.108 103.933 23.108C103.349 23.108 102.821 22.964 102.349 22.676C101.877 22.388 101.505 21.984 101.233 21.464C100.961 20.944 100.825 20.352 100.825 19.688ZM106.393 19.7C106.393 19.204 106.293 18.772 106.093 18.404C105.893 18.036 105.621 17.756 105.277 17.564C104.941 17.364 104.569 17.264 104.161 17.264C103.753 17.264 103.381 17.36 103.045 17.552C102.709 17.744 102.441 18.024 102.241 18.392C102.041 18.76 101.941 19.192 101.941 19.688C101.941 20.192 102.041 20.632 102.241 21.008C102.441 21.376 102.709 21.66 103.045 21.86C103.381 22.052 103.753 22.148 104.161 22.148C104.569 22.148 104.941 22.052 105.277 21.86C105.621 21.66 105.893 21.376 106.093 21.008C106.293 20.632 106.393 20.196 106.393 19.7ZM108.934 19.688C108.934 19.016 109.07 18.428 109.342 17.924C109.614 17.412 109.986 17.016 110.458 16.736C110.938 16.456 111.474 16.316 112.066 16.316C112.578 16.316 113.054 16.436 113.494 16.676C113.934 16.908 114.27 17.216 114.502 17.6V14.12H115.606V23H114.502V21.764C114.286 22.156 113.966 22.48 113.542 22.736C113.118 22.984 112.622 23.108 112.054 23.108C111.47 23.108 110.938 22.964 110.458 22.676C109.986 22.388 109.614 21.984 109.342 21.464C109.07 20.944 108.934 20.352 108.934 19.688ZM114.502 19.7C114.502 19.204 114.402 18.772 114.202 18.404C114.002 18.036 113.73 17.756 113.386 17.564C113.05 17.364 112.678 17.264 112.27 17.264C111.862 17.264 111.49 17.36 111.154 17.552C110.818 17.744 110.55 18.024 110.35 18.392C110.15 18.76 110.05 19.192 110.05 19.688C110.05 20.192 110.15 20.632 110.35 21.008C110.55 21.376 110.818 21.66 111.154 21.86C111.49 22.052 111.862 22.148 112.27 22.148C112.678 22.148 113.05 22.052 113.386 21.86C113.73 21.66 114.002 21.376 114.202 21.008C114.402 20.632 114.502 20.196 114.502 19.7ZM123.519 23.108C122.903 23.108 122.343 22.968 121.839 22.688C121.343 22.408 120.951 22.012 120.663 21.5C120.383 20.98 120.243 20.38 120.243 19.7C120.243 19.028 120.387 18.436 120.675 17.924C120.971 17.404 121.371 17.008 121.875 16.736C122.379 16.456 122.943 16.316 123.567 16.316C124.191 16.316 124.755 16.456 125.259 16.736C125.763 17.008 126.159 17.4 126.447 17.912C126.743 18.424 126.891 19.02 126.891 19.7C126.891 20.38 126.739 20.98 126.435 21.5C126.139 22.012 125.735 22.408 125.223 22.688C124.711 22.968 124.143 23.108 123.519 23.108ZM123.519 22.148C123.911 22.148 124.279 22.056 124.623 21.872C124.967 21.688 125.243 21.412 125.451 21.044C125.667 20.676 125.775 20.228 125.775 19.7C125.775 19.172 125.671 18.724 125.463 18.356C125.255 17.988 124.983 17.716 124.647 17.54C124.311 17.356 123.947 17.264 123.555 17.264C123.155 17.264 122.787 17.356 122.451 17.54C122.123 17.716 121.859 17.988 121.659 18.356C121.459 18.724 121.359 19.172 121.359 19.7C121.359 20.236 121.455 20.688 121.647 21.056C121.847 21.424 122.111 21.7 122.439 21.884C122.767 22.06 123.127 22.148 123.519 22.148ZM131.53 16.304C132.33 16.304 132.978 16.548 133.474 17.036C133.97 17.516 134.218 18.212 134.218 19.124V23H133.138V19.28C133.138 18.624 132.974 18.124 132.646 17.78C132.318 17.428 131.87 17.252 131.302 17.252C130.726 17.252 130.266 17.432 129.922 17.792C129.586 18.152 129.418 18.676 129.418 19.364V23H128.326V16.424H129.418V17.36C129.634 17.024 129.926 16.764 130.294 16.58C130.67 16.396 131.082 16.304 131.53 16.304ZM140.533 17.324V21.2C140.533 21.52 140.601 21.748 140.737 21.884C140.873 22.012 141.109 22.076 141.445 22.076H142.249V23H141.265C140.657 23 140.201 22.86 139.897 22.58C139.593 22.3 139.441 21.84 139.441 21.2V17.324H138.589V16.424H139.441V14.768H140.533V16.424H142.249V17.324H140.533ZM146.836 16.304C147.332 16.304 147.78 16.412 148.18 16.628C148.58 16.836 148.892 17.152 149.116 17.576C149.348 18 149.464 18.516 149.464 19.124V23H148.384V19.28C148.384 18.624 148.22 18.124 147.892 17.78C147.564 17.428 147.116 17.252 146.548 17.252C145.972 17.252 145.512 17.432 145.168 17.792C144.832 18.152 144.664 18.676 144.664 19.364V23H143.572V14.12H144.664V17.36C144.88 17.024 145.176 16.764 145.552 16.58C145.936 16.396 146.364 16.304 146.836 16.304ZM157.248 19.46C157.248 19.668 157.236 19.888 157.212 20.12H151.956C151.996 20.768 152.216 21.276 152.616 21.644C153.024 22.004 153.516 22.184 154.092 22.184C154.564 22.184 154.956 22.076 155.268 21.86C155.588 21.636 155.812 21.34 155.94 20.972H157.116C156.94 21.604 156.588 22.12 156.06 22.52C155.532 22.912 154.876 23.108 154.092 23.108C153.468 23.108 152.908 22.968 152.412 22.688C151.924 22.408 151.54 22.012 151.26 21.5C150.98 20.98 150.84 20.38 150.84 19.7C150.84 19.02 150.976 18.424 151.248 17.912C151.52 17.4 151.9 17.008 152.388 16.736C152.884 16.456 153.452 16.316 154.092 16.316C154.716 16.316 155.268 16.452 155.748 16.724C156.228 16.996 156.596 17.372 156.852 17.852C157.116 18.324 157.248 18.86 157.248 19.46ZM156.12 19.232C156.12 18.816 156.028 18.46 155.844 18.164C155.66 17.86 155.408 17.632 155.088 17.48C154.776 17.32 154.428 17.24 154.044 17.24C153.492 17.24 153.02 17.416 152.628 17.768C152.244 18.12 152.024 18.608 151.968 19.232H156.12Z" fill="white"/>
<path d="M64.982 42.768H60.266L59.51 45H56.288L60.86 32.364H64.424L68.996 45H65.738L64.982 42.768ZM64.19 40.392L62.624 35.766L61.076 40.392H64.19ZM73.4655 36.378C73.7655 35.91 74.1795 35.532 74.7075 35.244C75.2355 34.956 75.8535 34.812 76.5615 34.812C77.3895 34.812 78.1395 35.022 78.8115 35.442C79.4835 35.862 80.0115 36.462 80.3955 37.242C80.7915 38.022 80.9895 38.928 80.9895 39.96C80.9895 40.992 80.7915 41.904 80.3955 42.696C80.0115 43.476 79.4835 44.082 78.8115 44.514C78.1395 44.934 77.3895 45.144 76.5615 45.144C75.8655 45.144 75.2475 45 74.7075 44.712C74.1795 44.424 73.7655 44.052 73.4655 43.596V49.788H70.3875V34.956H73.4655V36.378ZM77.8575 39.96C77.8575 39.192 77.6415 38.592 77.2095 38.16C76.7895 37.716 76.2675 37.494 75.6435 37.494C75.0315 37.494 74.5095 37.716 74.0775 38.16C73.6575 38.604 73.4475 39.21 73.4475 39.978C73.4475 40.746 73.6575 41.352 74.0775 41.796C74.5095 42.24 75.0315 42.462 75.6435 42.462C76.2555 42.462 76.7775 42.24 77.2095 41.796C77.6415 41.34 77.8575 40.728 77.8575 39.96ZM85.6823 36.378C85.9823 35.91 86.3963 35.532 86.9243 35.244C87.4523 34.956 88.0703 34.812 88.7783 34.812C89.6063 34.812 90.3563 35.022 91.0283 35.442C91.7003 35.862 92.2283 36.462 92.6123 37.242C93.0083 38.022 93.2063 38.928 93.2063 39.96C93.2063 40.992 93.0083 41.904 92.6123 42.696C92.2283 43.476 91.7003 44.082 91.0283 44.514C90.3563 44.934 89.6063 45.144 88.7783 45.144C88.0823 45.144 87.4643 45 86.9243 44.712C86.3963 44.424 85.9823 44.052 85.6823 43.596V49.788H82.6043V34.956H85.6823V36.378ZM90.0743 39.96C90.0743 39.192 89.8583 38.592 89.4263 38.16C89.0063 37.716 88.4843 37.494 87.8603 37.494C87.2483 37.494 86.7263 37.716 86.2943 38.16C85.8743 38.604 85.6643 39.21 85.6643 39.978C85.6643 40.746 85.8743 41.352 86.2943 41.796C86.7263 42.24 87.2483 42.462 87.8603 42.462C88.4723 42.462 88.9943 42.24 89.4263 41.796C89.8583 41.34 90.0743 40.728 90.0743 39.96ZM103.208 45.126C102.284 45.126 101.456 44.976 100.724 44.676C99.9915 44.376 99.4035 43.932 98.9595 43.344C98.5275 42.756 98.2995 42.048 98.2755 41.22H101.552C101.6 41.688 101.762 42.048 102.038 42.3C102.314 42.54 102.674 42.66 103.118 42.66C103.574 42.66 103.934 42.558 104.198 42.354C104.462 42.138 104.594 41.844 104.594 41.472C104.594 41.16 104.486 40.902 104.27 40.698C104.066 40.494 103.808 40.326 103.496 40.194C103.196 40.062 102.764 39.912 102.2 39.744C101.384 39.492 100.718 39.24 100.202 38.988C99.6855 38.736 99.2415 38.364 98.8695 37.872C98.4975 37.38 98.3115 36.738 98.3115 35.946C98.3115 34.77 98.7375 33.852 99.5895 33.192C100.442 32.52 101.552 32.184 102.92 32.184C104.312 32.184 105.434 32.52 106.286 33.192C107.138 33.852 107.594 34.776 107.654 35.964H104.324C104.3 35.556 104.15 35.238 103.874 35.01C103.598 34.77 103.244 34.65 102.812 34.65C102.44 34.65 102.14 34.752 101.912 34.956C101.684 35.148 101.57 35.43 101.57 35.802C101.57 36.21 101.762 36.528 102.146 36.756C102.53 36.984 103.13 37.23 103.946 37.494C104.762 37.77 105.422 38.034 105.926 38.286C106.442 38.538 106.886 38.904 107.258 39.384C107.63 39.864 107.816 40.482 107.816 41.238C107.816 41.958 107.63 42.612 107.258 43.2C106.898 43.788 106.37 44.256 105.674 44.604C104.978 44.952 104.156 45.126 103.208 45.126ZM115.308 42.39V45H113.742C112.626 45 111.756 44.73 111.132 44.19C110.508 43.638 110.196 42.744 110.196 41.508V37.512H108.972V34.956H110.196V32.508H113.274V34.956H115.29V37.512H113.274V41.544C113.274 41.844 113.346 42.06 113.49 42.192C113.634 42.324 113.874 42.39 114.21 42.39H115.308ZM121.594 45.144C120.61 45.144 119.722 44.934 118.93 44.514C118.15 44.094 117.532 43.494 117.076 42.714C116.632 41.934 116.41 41.022 116.41 39.978C116.41 38.946 116.638 38.04 117.094 37.26C117.55 36.468 118.174 35.862 118.966 35.442C119.758 35.022 120.646 34.812 121.63 34.812C122.614 34.812 123.502 35.022 124.294 35.442C125.086 35.862 125.71 36.468 126.166 37.26C126.622 38.04 126.85 38.946 126.85 39.978C126.85 41.01 126.616 41.922 126.148 42.714C125.692 43.494 125.062 44.094 124.258 44.514C123.466 44.934 122.578 45.144 121.594 45.144ZM121.594 42.48C122.182 42.48 122.68 42.264 123.088 41.832C123.508 41.4 123.718 40.782 123.718 39.978C123.718 39.174 123.514 38.556 123.106 38.124C122.71 37.692 122.218 37.476 121.63 37.476C121.03 37.476 120.532 37.692 120.136 38.124C119.74 38.544 119.542 39.162 119.542 39.978C119.542 40.782 119.734 41.4 120.118 41.832C120.514 42.264 121.006 42.48 121.594 42.48ZM131.561 36.63C131.921 36.078 132.371 35.646 132.911 35.334C133.451 35.01 134.051 34.848 134.711 34.848V38.106H133.865C133.097 38.106 132.521 38.274 132.137 38.61C131.753 38.934 131.561 39.51 131.561 40.338V45H128.483V34.956H131.561V36.63ZM145.65 39.816C145.65 40.104 145.632 40.404 145.596 40.716H138.63C138.678 41.34 138.876 41.82 139.224 42.156C139.584 42.48 140.022 42.642 140.538 42.642C141.306 42.642 141.84 42.318 142.14 41.67H145.416C145.248 42.33 144.942 42.924 144.498 43.452C144.066 43.98 143.52 44.394 142.86 44.694C142.2 44.994 141.462 45.144 140.646 45.144C139.662 45.144 138.786 44.934 138.018 44.514C137.25 44.094 136.65 43.494 136.218 42.714C135.786 41.934 135.57 41.022 135.57 39.978C135.57 38.934 135.78 38.022 136.2 37.242C136.632 36.462 137.232 35.862 138 35.442C138.768 35.022 139.65 34.812 140.646 34.812C141.618 34.812 142.482 35.016 143.238 35.424C143.994 35.832 144.582 36.414 145.002 37.17C145.434 37.926 145.65 38.808 145.65 39.816ZM142.5 39.006C142.5 38.478 142.32 38.058 141.96 37.746C141.6 37.434 141.15 37.278 140.61 37.278C140.094 37.278 139.656 37.428 139.296 37.728C138.948 38.028 138.732 38.454 138.648 39.006H142.5Z" fill="white"/>
<defs>
<linearGradient id="paint0_linear" x1="-69" y1="-26" x2="180" y2="62" gradientUnits="userSpaceOnUse">
<stop stop-color="#FDC07D"/>
<stop offset="1" stop-color="#EC6747"/>
</linearGradient>
</defs>
</svg>
