<svg width="32" height="32" viewBox="0 0 32 32" fill="none" xmlns="http://www.w3.org/2000/svg">
<path fill-rule="evenodd" clip-rule="evenodd" d="M8.4375 0H23.5625C28.2148 0 32 3.78516 32 8.4375V23.5625C32 28.2148 28.2148 32 23.5625 32H8.4375C3.78516 32 0 28.2148 0 23.5625V8.4375C0 3.78516 3.78516 0 8.4375 0ZM23.7556 11.2239C24.5406 11.1242 25.2934 10.9187 26 10.6088C25.4704 11.3973 24.8208 12.0825 24.0478 12.6311C24.0561 12.7962 24.062 12.9624 24.062 13.1346C24.062 18.2812 20.1432 24.2188 12.9755 24.2188C10.7703 24.2188 8.72544 23.5834 7 22.4707C7.30638 22.5099 7.61275 22.5242 7.93219 22.5242C9.75381 22.5242 11.4365 21.8996 12.7618 20.8629C11.0589 20.8261 9.62675 19.692 9.12206 18.1494C9.35837 18.2017 9.61012 18.2159 9.8595 18.2159C10.2181 18.2159 10.5637 18.1744 10.8807 18.0877C9.11019 17.7255 7.76 16.1532 7.76 14.2604V14.2176C8.28012 14.5038 8.89406 14.6855 9.51987 14.6974C8.48438 14.0051 7.78969 12.8092 7.78969 11.4602C7.78969 10.7418 7.98681 10.0744 8.32288 9.49137C10.2478 11.8557 13.1132 13.4078 16.3516 13.5657C16.2874 13.2831 16.2613 12.9862 16.2613 12.6774C16.2613 10.5316 17.9974 8.78125 20.1539 8.78125C21.2654 8.78125 22.2843 9.25269 22.9992 10.0139C23.8851 9.83694 24.7163 9.51987 25.4692 9.071C25.1794 9.98419 24.5631 10.7418 23.7556 11.2239Z" fill="white"/>
</svg>
